<svg width="20" height="20" viewBox="0 0 20 20" fill="none" xmlns="http://www.w3.org/2000/svg">
<path d="M13.6499 18.9583H2.69992C1.90825 18.9583 1.17492 18.5917 0.699923 17.95C0.216589 17.3 0.0749299 16.4833 0.316597 15.7083L3.82492 4.43329C4.14159 3.38329 5.10827 2.66663 6.20827 2.66663H16.4583C17.4666 2.66663 18.3749 3.2667 18.7583 4.20003C18.9666 4.68337 19.0083 5.23338 18.8833 5.77504L16.0749 17.05C15.8083 18.175 14.8083 18.9583 13.6499 18.9583ZM6.21659 3.92497C5.67492 3.92497 5.18326 4.28335 5.02493 4.80835L1.5166 16.0834C1.39993 16.475 1.46659 16.8834 1.71659 17.2167C1.94992 17.5334 2.31659 17.7167 2.70826 17.7167H13.6583C14.2333 17.7167 14.7333 17.325 14.8666 16.7667L17.6749 5.4833C17.7416 5.2083 17.7249 4.93334 17.6166 4.69167C17.4166 4.21667 16.9749 3.91663 16.4666 3.91663H6.21659V3.92497Z" fill="#7B2420"/>
<path d="M17.3166 18.9583H13.3333C12.9916 18.9583 12.7083 18.675 12.7083 18.3333C12.7083 17.9917 12.9916 17.7083 13.3333 17.7083H17.3166C17.6583 17.7083 17.975 17.5667 18.2083 17.3167C18.4417 17.0667 18.5583 16.7334 18.5333 16.3917L17.7083 5.0417C17.6833 4.70003 17.9416 4.39999 18.2833 4.37499C18.625 4.35833 18.925 4.60828 18.95 4.94994L19.775 16.3C19.825 16.9834 19.5833 17.6667 19.1166 18.1667C18.6583 18.675 18 18.9583 17.3166 18.9583Z" fill="#7B2420"/>
<path d="M8.06645 5.94165C8.01645 5.94165 7.96646 5.9333 7.91646 5.92497C7.58312 5.84164 7.3748 5.50827 7.45813 5.16661L8.32478 1.56665C8.40812 1.23332 8.74145 1.02494 9.08312 1.10828C9.41645 1.19161 9.6248 1.52497 9.54147 1.86664L8.67479 5.4667C8.60813 5.75003 8.34978 5.94165 8.06645 5.94165Z" fill="#7B2420"/>
<path d="M13.65 5.94997C13.6083 5.94997 13.5583 5.94995 13.5166 5.93329C13.1833 5.85829 12.9666 5.52494 13.0333 5.19161L13.8166 1.57497C13.8916 1.2333 14.2249 1.02501 14.5583 1.09167C14.8916 1.15834 15.1083 1.49992 15.0416 1.83325L14.2583 5.44999C14.1999 5.74999 13.9416 5.94997 13.65 5.94997Z" fill="#7B2420"/>
<path d="M13.0835 10.625H6.41681C6.07514 10.625 5.79181 10.3417 5.79181 10C5.79181 9.65833 6.07514 9.375 6.41681 9.375H13.0835C13.4251 9.375 13.7085 9.65833 13.7085 10C13.7085 10.3417 13.4251 10.625 13.0835 10.625Z" fill="#7B2420"/>
<path d="M12.2502 13.9583H5.5835C5.24183 13.9583 4.9585 13.675 4.9585 13.3333C4.9585 12.9916 5.24183 12.7083 5.5835 12.7083H12.2502C12.5918 12.7083 12.8752 12.9916 12.8752 13.3333C12.8752 13.675 12.5918 13.9583 12.2502 13.9583Z" fill="#7B2420"/>
</svg>
