<svg width="16" height="18" viewBox="0 0 16 18" fill="none" xmlns="http://www.w3.org/2000/svg">
<g clip-path="url(#clip0_357_5275)">
<path d="M1.02335 9.20338C1.02955 9.51404 1.16546 9.67286 1.38197 9.78477C2.26898 10.2436 3.15455 10.7047 4.04013 11.1653C5.14078 11.7379 6.24144 12.3104 7.3397 12.8867C7.44939 12.9443 7.51615 12.9424 7.6101 12.85C9.24677 11.2466 10.8868 9.64639 12.5306 8.04944C12.6198 7.96261 12.6226 7.90456 12.5664 7.80101C11.5129 5.86647 10.4647 3.92915 9.41416 1.99323C9.16713 1.53769 8.76369 1.47871 8.38885 1.8437C6.01158 4.16087 3.63478 6.4785 1.25702 8.79521C1.12159 8.92709 1.01763 9.06872 1.02335 9.20246V9.20338Z" fill="#7B2420"/>
<path d="M11.6918 15.2666C12.132 15.2591 12.5269 15.1263 12.8421 14.8264C13.4253 14.2719 14.0085 13.7161 14.5684 13.1398C15.1745 12.5157 15.1698 11.5196 14.5627 10.8951C14.0477 10.3648 13.5064 9.85861 12.9809 9.3376C12.9084 9.26608 12.8721 9.28837 12.8135 9.34595C11.5283 10.6021 10.2421 11.8577 8.95356 13.1105C8.87535 13.1867 8.8763 13.229 8.95403 13.3037C9.47098 13.7997 9.98077 14.304 10.4987 14.799C10.8277 15.1133 11.2316 15.2615 11.6914 15.2675L11.6918 15.2666Z" fill="#7B2420"/>
<path d="M6.63068 16.0713C6.64832 16.5129 6.89201 16.9438 7.40419 17.1964C7.92018 17.4514 8.44046 17.4175 8.89923 17.0725C9.32318 16.7539 9.66558 16.3448 10.0514 15.9831C10.0929 15.9441 10.1029 15.9176 10.0476 15.8749C9.36753 15.3441 8.79908 14.6996 8.17436 14.1117C8.06372 14.0077 8.01222 14.0151 7.9135 14.1168C7.63929 14.3987 7.35221 14.6689 7.07085 14.9443C6.78519 15.2238 6.62973 15.5582 6.63068 16.0713Z" fill="#7B2420"/>
<path d="M13.0304 16.102C13.5111 16.329 14.514 16.277 15.2122 15.6659C15.906 15.0585 16.1841 14.0643 15.875 13.3228C15.0271 14.3448 14.0724 15.2759 13.0304 16.102Z" fill="#7B2420"/>
<path d="M3.42929 4.53653C3.65342 4.52724 3.83321 4.42926 3.93622 4.22262C4.04256 4.00901 4.0254 3.79262 3.85849 3.62266C3.46362 3.22052 3.06066 2.82581 2.64767 2.44132C2.43403 2.24211 2.09687 2.26672 1.88656 2.46593C1.67101 2.67025 1.64192 3.00645 1.85127 3.22052C2.24518 3.62359 2.65435 4.01226 3.06066 4.40325C3.15699 4.49613 3.28431 4.53142 3.42929 4.53653Z" fill="#7B2420"/>
<path d="M6.28151 1.7327C6.28151 1.55299 6.28533 1.37282 6.28056 1.19311C6.27245 0.877343 6.02781 0.639125 5.71593 0.636339C5.405 0.634017 5.14796 0.871771 5.14176 1.18429C5.1346 1.56135 5.1346 1.93841 5.14176 2.31547C5.14748 2.62799 5.40357 2.86621 5.71497 2.86389C6.02495 2.86203 6.27293 2.62056 6.28056 2.30712C6.28533 2.1158 6.28151 1.92402 6.28151 1.7327Z" fill="#7B2420"/>
<path d="M1.13542 5.65099C0.94514 5.65099 0.754862 5.64682 0.564585 5.65192C0.244594 5.66075 -0.00100183 5.90639 -4.81606e-05 6.20962C0.000905752 6.51285 0.246025 6.7585 0.567923 6.76361C0.948478 6.76964 1.32903 6.76918 1.70959 6.76361C2.03244 6.75896 2.27947 6.51703 2.28328 6.21427C2.2871 5.90268 2.03864 5.65842 1.70673 5.65146C1.51645 5.64728 1.32617 5.65053 1.13589 5.65099H1.13542Z" fill="#7B2420"/>
</g>
<defs>
<clipPath id="clip0_357_5275">
<rect width="16" height="16.7273" fill="white" transform="matrix(-1 0 0 1 16 0.636353)"/>
</clipPath>
</defs>
</svg>
