<svg width="21" height="21" viewBox="0 0 21 21" fill="none" xmlns="http://www.w3.org/2000/svg">
<g clip-path="url(#clip0_1_5126)">
<path d="M18.8935 15.9904C18.5882 16.6891 18.227 17.3323 17.8084 17.9236C17.2378 18.7298 16.7706 19.2878 16.4106 19.5977C15.8525 20.1063 15.2545 20.3668 14.6142 20.3816C14.1545 20.3816 13.6001 20.252 12.9548 19.989C12.3074 19.7273 11.7124 19.5977 11.1683 19.5977C10.5978 19.5977 9.98584 19.7273 9.3313 19.989C8.67577 20.252 8.14768 20.389 7.74392 20.4026C7.12987 20.4285 6.51782 20.1606 5.90689 19.5977C5.51696 19.2606 5.02923 18.6829 4.44496 17.8644C3.81808 16.9903 3.30269 15.9768 2.89894 14.8213C2.46652 13.5732 2.24976 12.3646 2.24976 11.1945C2.24976 9.85414 2.54202 8.69812 3.12741 7.72939C3.58748 6.95126 4.19954 6.33745 4.96557 5.88685C5.7316 5.43625 6.5593 5.20662 7.45067 5.19193C7.93839 5.19193 8.57798 5.34143 9.37279 5.63525C10.1654 5.93006 10.6743 6.07956 10.8974 6.07956C11.0642 6.07956 11.6295 5.90475 12.5879 5.55624C13.4942 5.23304 14.2591 5.09922 14.8858 5.15193C16.5838 5.28773 17.8595 5.95104 18.7078 7.14607C17.1892 8.05789 16.438 9.33502 16.453 10.9734C16.4667 12.2495 16.9338 13.3114 17.852 14.1546C18.2681 14.546 18.7328 14.8484 19.2498 15.0632C19.1376 15.3854 19.0193 15.6941 18.8935 15.9904ZM14.9991 0.804411C14.9991 1.80464 14.6304 2.73855 13.8954 3.60297C13.0084 4.63059 11.9355 5.2244 10.7721 5.1307C10.7572 5.0107 10.7486 4.88441 10.7486 4.7517C10.7486 3.79148 11.1705 2.76386 11.9195 1.92364C12.2935 1.49822 12.7692 1.14449 13.346 0.86231C13.9215 0.584343 14.4659 0.430621 14.978 0.404297C14.9929 0.538012 14.9991 0.671735 14.9991 0.804398V0.804411Z" fill="white"/>
</g>
<defs>
<clipPath id="clip0_1_5126">
<rect width="20" height="20" fill="white" transform="translate(0.75 0.404297)"/>
</clipPath>
</defs>
</svg>
