<svg width="20" height="18" viewBox="0 0 20 18" fill="none" xmlns="http://www.w3.org/2000/svg">
<path d="M1 9.9C1 9.40293 1.40295 9 1.9 9H18.1C18.5971 9 19 9.40293 19 9.9V15.3H1V9.9Z" stroke="#94A1B2" stroke-linejoin="round"/>
<path d="M9.09998 8.09999V6.29999C9.09998 5.80294 8.69703 5.39999 8.19998 5.39999H4.59998C4.10292 5.39999 3.69998 5.80294 3.69998 6.29999V8.09999C3.69998 8.59705 4.10292 8.99999 4.59998 8.99999H8.19998C8.69703 8.99999 9.09998 8.59705 9.09998 8.09999Z" stroke="#94A1B2" stroke-linejoin="round"/>
<path d="M16.2999 8.09999V6.29999C16.2999 5.80294 15.897 5.39999 15.3999 5.39999H11.7999C11.3029 5.39999 10.8999 5.80294 10.8999 6.29999V8.09999C10.8999 8.59705 11.3029 8.99999 11.7999 8.99999H15.3999C15.897 8.99999 16.2999 8.59705 16.2999 8.09999Z" stroke="#94A1B2" stroke-linejoin="round"/>
<path d="M16.2999 15.3H18.0999V17.1H17.1999L16.2999 15.3Z" stroke="#94A1B2" stroke-linejoin="round"/>
<path d="M1.90002 15.3H3.70002L2.80002 17.1H1.90002V15.3Z" stroke="#94A1B2" stroke-linejoin="round"/>
<path d="M1.90002 8.55001V1.35001" stroke="#94A1B2" stroke-linecap="round" stroke-linejoin="round"/>
<path d="M18.1 8.55001V1.35001" stroke="#94A1B2" stroke-linecap="round" stroke-linejoin="round"/>
<path d="M2.34998 3.14999C3.24998 3.14999 4.59998 2.69999 5.49998 2.24999C6.47887 1.76055 7.74998 0.899994 9.99998 0.899994C12.25 0.899994 13.6 1.79999 14.5 2.24999C15.4659 2.73299 17.0499 3.14999 17.65 3.14999" stroke="#94A1B2" stroke-linecap="round" stroke-linejoin="round"/>
</svg>
