<svg width="36" height="30" viewBox="0 0 36 30" fill="none" xmlns="http://www.w3.org/2000/svg">
<g clip-path="url(#clip0_496_526)">
<path d="M33.4388 4.34248C32.5701 3.42966 31.5321 2.73769 30.3322 2.26656C28.9998 1.75125 27.6159 1.44575 26.1804 1.35006C24.7412 1.25436 23.3094 1.32797 21.8813 1.57458C17.7589 2.28864 13.5997 4.23574 10.471 7.20609C9.41836 8.20356 8.58283 9.34827 7.96079 10.6328C7.53383 11.5604 7.22833 12.683 7.16943 13.732C7.16207 14.1516 7.18784 14.5749 7.25041 14.9945C7.42709 16.1539 8.17795 17.0999 9.09077 17.5489C8.58651 17.4937 8.28837 17.3722 8.01968 17.1993C8.4945 17.8471 9.18647 18.3918 9.98519 18.5979C11.2698 18.9292 12.6169 18.6826 13.8168 18.0826C14.4389 17.7734 15.0094 17.4348 15.5247 17.0667C16.132 16.6103 16.8645 16.0582 17.2473 15.4399C17.3871 15.2153 17.4018 15.0166 17.2951 14.8436C17.2104 14.7148 17.1 14.6669 16.9749 14.7C16.7025 14.77 16.4007 14.9651 16.2019 15.1675C16.0952 15.2742 16.0069 15.3515 15.9443 15.392C15.7087 15.6055 15.4842 15.8043 15.267 15.9883C15.0535 16.1723 14.7959 16.3159 14.4941 16.4226C13.5702 16.8165 12.5691 16.9048 11.5826 16.5993C11.2698 16.5036 10.9974 16.338 10.7618 16.0987C10.3974 15.7343 10.1766 15.3037 10.103 14.8105C10.0294 14.3172 10.011 13.824 10.0551 13.3308C10.2281 12.0426 10.6624 10.8316 11.3581 9.69426C12.0538 8.55691 12.8856 7.57048 13.8536 6.73127C16.1835 4.69583 19.095 3.24195 22.2236 2.67512C22.8456 2.56838 23.5045 2.4874 24.2038 2.43219C25.5767 2.32913 26.957 2.43219 28.2931 2.85179C29.585 3.25667 30.8512 4.10324 31.4328 5.32892C31.6278 5.73748 31.7493 6.16444 31.8119 6.60613C32.0438 7.24657 32.0806 7.81709 32.0879 7.8723C32.1542 8.40968 32.1247 8.91026 31.9922 9.39612C31.5505 11.023 30.3249 12.2192 28.871 12.948C28.8415 12.9627 28.8158 12.9775 28.7863 12.9922C28.8894 12.8854 28.9924 12.775 29.0918 12.6646C28.2673 13.3639 27.1963 13.9749 26.1399 14.2436C25.7645 14.3393 25.3706 14.3982 24.9657 14.4203C24.859 14.4203 24.7081 14.4166 24.5167 14.4056C24.1633 14.3872 23.7143 14.435 23.3904 14.597C23.2395 14.6706 23.1659 14.7957 23.1659 14.9687C23.1659 15.1196 23.2358 15.2301 23.3757 15.3074C23.6701 15.4656 24.075 15.5466 24.4063 15.565C24.5866 15.5761 24.7228 15.5908 24.8075 15.6129C25.5804 15.7417 26.2025 16.0619 26.6736 16.5772C27.1889 17.1146 27.5091 17.7366 27.6379 18.4433C27.7189 18.8813 27.752 19.3157 27.741 19.7463C28.2931 21.9584 27.5054 24.2147 26.0847 25.4809C25.2565 26.2207 24.248 26.6992 23.1695 27.001C23.7695 26.5961 24.3326 26.0808 24.8148 25.5435C24.7486 25.6023 24.6823 25.6612 24.6124 25.7164C24.075 26.1471 23.4861 26.4784 22.842 26.7139C22.242 26.9495 21.5721 27.0673 20.8286 27.0673C20.0851 27.0673 19.4483 26.8538 18.9146 26.4231C18.5723 26.1508 18.2963 25.5103 17.7073 25.0392C17.5454 24.9104 17.3798 24.8478 17.2068 24.8478C16.9049 24.8699 16.7614 25.0208 16.7724 25.2968C16.7835 25.5766 16.8424 25.8011 16.9491 25.9741C17.1 26.2759 17.2877 26.5225 17.5123 26.7139C18.3883 27.4611 19.4152 27.9654 20.5047 28.2267C22.0506 28.5985 23.5118 28.5616 24.9473 28.1936C26.2798 27.8549 27.5312 27.2697 28.5508 26.3606C31.1493 24.038 31.5211 19.7095 29.4047 17.0594C29.0403 16.7171 28.6575 16.3748 28.2637 16.0288C27.8661 15.6865 27.4097 15.4399 26.8944 15.289C27.6232 15.289 28.3483 15.1564 29.0661 14.8878C29.7838 14.6191 30.4537 14.3246 31.0794 14.0007C32.8351 13.1247 34.2816 11.6598 34.8117 9.7053C34.9847 9.07221 35.0252 8.41336 34.9405 7.72507C34.8117 6.37424 34.3111 5.24058 33.4424 4.32776L33.4388 4.34248Z" fill="white"/>
<path d="M1.71463 23.8353C1.7588 23.85 1.78824 23.8721 1.80665 23.8905C1.987 24.0929 1.98332 24.4242 1.88394 24.6413C1.82137 24.7518 1.73671 24.8548 1.62629 24.9542C1.39073 25.1677 1.22509 25.418 1.12939 25.6903C1.2619 26.4228 1.72935 27.1884 2.52071 27.6963C3.16483 28.1454 3.86785 28.4362 4.62976 28.565C6.19775 28.83 7.81359 28.657 9.33005 28.2448C10.114 28.0313 10.8281 27.7957 11.4722 27.5381C12.8451 27.0228 14.0782 26.3271 15.175 25.4474C16.2682 24.5677 17.262 23.5703 18.1527 22.455C19.0435 21.3397 19.8459 20.1582 20.5673 18.9141C21.285 17.6701 21.9476 16.4149 22.5475 15.1488C23.015 14.3574 23.2579 14.0372 23.9977 12.8962C24.686 11.6962 25.4295 10.5515 26.2356 9.4694C27.0417 8.38727 28.0097 7.48917 29.1471 6.78247C29.4489 6.55427 29.9421 6.34446 30.0157 5.97639C30.0378 5.86965 29.9715 5.76291 29.8206 5.65617C29.6918 5.57151 29.5372 5.52734 29.3532 5.52734C28.9925 5.52734 28.595 5.58992 28.2269 5.71874C28.0428 5.78499 27.8883 5.82548 27.7594 5.84757C25.6136 6.58003 23.9683 7.79099 22.4261 9.40315C22.9708 8.90625 23.5524 8.45352 24.1634 8.06336C23.2469 9.12341 22.0249 11.0227 21.3034 12.2815C20.4974 13.5256 20.4937 13.474 19.8201 14.5966C19.6766 14.8837 19.014 16.3303 17.862 18.3252C16.2461 21.1226 13.9494 24.0377 11.1446 25.6167C11.2035 25.5578 11.2624 25.4953 11.3176 25.4327C10.8833 25.8192 10.4269 26.1688 9.94473 26.478C9.31164 26.8866 8.63439 27.181 7.91665 27.3614C6.8566 27.6301 5.69349 27.5491 4.68129 27.1994C4.33899 27.0817 4.10342 26.8719 3.97459 26.57C3.84577 26.2682 3.88994 26.0216 4.10342 25.8302C4.3169 25.6388 4.4899 25.4217 4.61872 25.1861C4.93526 24.5493 4.89477 23.6954 4.37579 23.1102C4.00772 22.6942 3.40408 22.5507 2.87774 22.6906C2.26674 22.8562 1.78824 23.2979 1.46066 23.8426C1.47538 23.8389 1.48642 23.8316 1.50115 23.8279C1.57108 23.8095 1.64102 23.8132 1.71463 23.8316V23.8353Z" fill="white"/>
<path d="M12.7569 23.0036L12.8894 23.1067C13.7912 21.9693 14.623 20.751 15.3555 19.4848C16.3787 17.7181 17.1664 16.3341 17.2658 16.1611C16.7173 16.6543 16.7394 16.6838 15.7824 17.4089C15.245 17.7917 14.6488 18.145 14.0083 18.4653C12.7753 19.0836 11.3729 19.3597 10.0111 19.0431L9.97424 19.2088C11.3729 19.5327 12.8084 19.2566 14.0856 18.6199C14.7334 18.296 15.3371 17.9389 15.8818 17.5488C15.9849 17.4678 16.4155 17.1439 16.6032 16.9893C16.1505 17.7807 15.683 18.5867 15.2119 19.4075C14.4831 20.6663 13.6586 21.881 12.7606 23.011L12.7569 23.0036Z" fill="white"/>
<path d="M33.8658 3.93749C32.9419 2.96577 31.823 2.22227 30.5458 1.71801C27.2515 0.444479 23.6702 0.470244 20.214 1.32417L20.2545 1.48612C23.6518 0.646919 27.2074 0.606431 30.4869 1.8726C31.742 2.36582 32.8389 3.09828 33.748 4.05159C34.6314 4.97913 35.1651 6.1312 35.3344 7.47834L35.5 7.45626C35.327 6.07231 34.7749 4.88711 33.8695 3.9338L33.8658 3.93749Z" fill="white"/>
<path d="M6.97441 12.2265C7.11796 11.645 7.32408 11.0192 7.57805 10.4634C8.22218 9.13102 9.09819 7.9311 10.184 6.90418C11.8771 5.2957 13.9347 3.88967 16.456 2.78545L16.3897 2.63086C13.8647 3.73508 11.7888 5.14847 10.0662 6.78272C8.96568 7.82436 8.07863 9.039 7.42714 10.3935C7.17685 10.9419 6.97073 11.5456 6.81246 12.1897C6.49224 13.489 6.47383 14.8361 6.84927 16.1318C6.89344 16.2863 6.94497 16.4373 7.00754 16.5845L7.16213 16.5219C7.0333 16.2054 6.98913 15.9919 6.98177 15.9661C6.64683 14.7368 6.66891 13.4816 6.97441 12.2302V12.2265Z" fill="white"/>
<path d="M31.2635 14.3942C30.5126 14.7806 29.309 15.3143 28.4992 15.5205L28.3373 15.561C28.363 15.583 28.871 15.999 29.6918 16.7682L29.7323 16.8124C30.958 18.3473 31.407 20.4232 31.1125 22.3519L31.2782 22.3777C31.58 20.4122 31.1273 18.2847 29.8648 16.7093L29.8096 16.6468C29.4525 16.3118 29.0771 15.9732 28.698 15.6456C29.4673 15.4285 30.623 14.9205 31.3408 14.5488C32.7394 13.8494 33.9872 12.7746 34.7528 11.4091L34.6056 11.3281C33.862 12.6532 32.6437 13.7096 31.2635 14.3978V14.3942Z" fill="white"/>
<path d="M28.8268 26.6882C28.2968 27.163 27.7005 27.5642 27.0564 27.8808C26.0994 28.3519 25.0577 28.6684 24.0455 28.8194L24.0713 28.985C25.8307 28.72 27.6085 28.0059 28.9409 26.8134C29.7286 26.1103 30.3396 25.2343 30.7665 24.1964L30.6119 24.1338C30.2107 25.1055 29.6255 25.9742 28.8268 26.6882Z" fill="white"/>
<path d="M17.2326 27.0486C16.9713 26.8241 16.7504 26.537 16.5737 26.191C16.4339 25.9591 16.3602 25.672 16.3455 25.3297C16.3418 25.2156 16.3529 25.1567 16.3713 24.9727C16.2756 25.0573 15.937 25.3702 15.4401 25.7714C14.3174 26.6731 13.0329 27.4019 11.6195 27.932C10.9901 28.1822 10.2871 28.4178 9.52515 28.6276L9.56931 28.7896C10.3349 28.5761 11.0453 28.3405 11.6784 28.0865C13.4856 27.4093 14.8659 26.5186 16.1799 25.3665C16.1983 25.7235 16.283 26.029 16.4265 26.272C16.6105 26.6327 16.8424 26.9345 17.1222 27.1774C18.554 28.4068 20.3207 28.9846 22.1832 29.0803L22.1905 28.911C20.3649 28.819 18.6386 28.2522 17.2326 27.0486Z" fill="white"/>
<path d="M4.99413 25.3704L4.98677 25.3851C4.83586 25.6611 4.63342 25.9151 4.38313 26.1396C4.35736 26.1617 4.32056 26.1948 4.32056 26.2611C4.32056 26.2979 4.3316 26.3384 4.35736 26.401C4.43834 26.5924 4.58557 26.7175 4.81377 26.7948C5.77076 27.1224 6.84553 27.1886 7.80988 26.9457C8.47977 26.7764 9.12022 26.4967 9.71282 26.1139C10.2097 25.7936 10.6845 25.4256 11.1299 25.0207L11.0158 24.8955C10.5778 25.2931 10.1103 25.6575 9.6208 25.9703C9.04293 26.3421 8.42088 26.6144 7.76571 26.7801C6.83449 27.0156 5.78917 26.9494 4.8653 26.6329C4.67759 26.5703 4.57085 26.4783 4.50827 26.331C4.48987 26.2905 4.48619 26.2721 4.48251 26.2685L4.48987 26.2611C4.75488 26.0219 4.96836 25.7532 5.13032 25.4587C5.13768 25.4366 5.40269 24.9839 5.40269 24.303C5.40269 23.5263 5.04566 22.8527 4.5598 22.4736L4.45674 22.6061C5.24442 23.2208 5.45422 24.4391 4.99045 25.363L4.99413 25.3704Z" fill="white"/>
<path d="M0.761279 24.4429C0.941635 23.6699 1.51583 22.9264 2.13419 22.5547L2.04585 22.4111C1.39804 22.8013 0.787044 23.5779 0.595647 24.4061C0.411611 25.168 0.485225 25.8968 0.790725 26.574C1.09254 27.2439 1.56368 27.785 2.1894 28.1862C2.89978 28.6831 3.68745 29.007 4.53034 29.1469C5.06773 29.2389 5.61983 29.283 6.17194 29.283C6.61363 29.283 6.91913 29.2536 7.01483 29.2499L6.99274 29.0843C6.16826 29.1505 5.34746 29.1174 4.55611 28.9849C3.73898 28.8487 2.97339 28.5322 2.28142 28.05C1.23241 27.3764 0.6619 26.2759 0.6619 25.2232C0.6619 24.995 0.698707 24.6895 0.757599 24.4466L0.761279 24.4429Z" fill="white"/>
<path d="M27.2147 18.5313C27.0969 17.8835 26.8024 17.3424 26.3607 16.8823C25.9448 16.4296 25.4111 16.1535 24.7265 16.0394C24.6639 16.0284 24.605 16.01 24.3695 15.9952C23.9425 15.9695 23.2468 15.8333 22.9524 15.5278L22.8677 15.4395C22.8162 15.5425 22.08 17.1252 20.928 19.1165C18.9477 22.5433 16.9602 24.391 16.8976 24.4683L17.1331 24.4425C17.1516 24.4425 17.5307 24.3763 17.965 24.7222C18.1453 24.8695 18.3183 25.0388 18.4803 25.2339C18.8962 25.7455 18.9956 25.9663 19.1723 26.1025C19.636 26.4743 20.1771 26.6546 20.8249 26.6546C21.5095 26.6546 22.1353 26.5442 22.68 26.3307C23.0886 26.1798 23.475 25.9884 23.8357 25.7602L23.7437 25.6167C23.3941 25.8412 23.0149 26.0289 22.6174 26.1724C22.0874 26.3786 21.4838 26.4853 20.8212 26.4853C20.2139 26.4853 19.706 26.316 19.2717 25.97C19.1244 25.8522 19.014 25.6277 18.6054 25.1271C18.4398 24.921 18.2558 24.7406 18.0644 24.5897C17.8325 24.4057 17.5822 24.299 17.3209 24.2732C19.6508 21.8734 21.4654 18.7227 22.9156 15.7192C22.9671 15.7597 23.0223 15.7965 23.0812 15.8296C23.7253 16.1793 24.4725 16.1462 24.6529 16.1903L24.697 16.1977C25.3412 16.3044 25.8454 16.5658 26.2356 16.989C26.6736 17.4454 26.9386 17.9571 27.0453 18.5533C27.1705 19.2453 27.1742 19.9189 27.0527 20.5888C27.0711 20.5888 27.2367 20.6219 27.2183 20.6182C27.2257 20.5704 27.3472 19.2564 27.211 18.5239L27.2147 18.5313Z" fill="white"/>
<path d="M14.3285 16.0435L14.3542 16.0324C14.6045 15.9441 14.8217 15.8226 14.9947 15.6754C15.2008 15.4987 15.4253 15.3 15.6609 15.0902C15.7603 15.0165 15.8155 14.9687 15.9038 14.8804C16.0327 14.7515 16.1836 14.6337 16.3529 14.5307C16.5443 14.4129 16.8277 14.2804 17.0485 14.2804C17.4313 14.2804 17.7221 14.5969 17.7773 14.9724L17.8104 15.2079L17.9319 15.0018C18.576 13.905 19.257 12.8228 19.9563 11.7849C20.6667 10.7359 21.4875 9.73838 22.3966 8.82188L22.2788 8.7041C21.3623 9.62796 20.5342 10.6328 19.8201 11.6928C19.1576 12.6756 18.5098 13.6988 17.8951 14.7405C17.7295 14.2878 17.3025 14.0191 16.8351 14.1368C16.4523 14.2325 16.0621 14.4865 15.7897 14.7589C15.7124 14.8362 15.6535 14.8914 15.5542 14.965C15.3223 15.1748 15.0978 15.3736 14.8916 15.5466C14.7334 15.6828 14.5346 15.7932 14.299 15.8778C14.2033 15.9146 13.9273 16.0471 13.4377 16.1428C12.8709 16.2533 12.293 16.2091 11.7593 16.0471C11.6047 15.9993 11.4686 15.9294 11.3397 15.8337L11.2404 15.9698C11.3839 16.0766 11.5348 16.1539 11.7078 16.2091C12.5654 16.4741 13.4635 16.4189 14.3285 16.0471V16.0435Z" fill="white"/>
<path d="M30.1629 5.16698L30.1445 5.15594C29.9163 5.00503 29.6513 4.92773 29.3532 4.92773C29.1397 4.92773 28.9152 4.94614 28.6943 4.98295C28.1643 5.07128 27.9398 5.21115 27.6674 5.25532L27.5717 5.2774C26.1399 5.76694 24.929 6.44787 23.7217 7.40118L23.8247 7.53369C24.9805 6.61719 26.1767 5.93257 27.6232 5.43936L27.6895 5.42095C27.7926 5.40623 27.9251 5.36574 28.0833 5.31053C28.4956 5.1633 28.9409 5.09337 29.3495 5.09337C29.6145 5.09337 29.8501 5.15962 30.0488 5.29213C30.0636 5.31053 30.4353 5.52769 30.4353 5.92521C30.4353 6.11293 30.347 6.35586 30.1298 6.56934C30.0967 6.60614 30.0562 6.63927 30.0194 6.6724L30.1298 6.80122C30.358 6.60614 30.5273 6.38162 30.5899 6.08348C30.601 6.03195 30.5384 5.43936 30.1629 5.16698Z" fill="white"/>
<path d="M26.7031 9.81203C27.2331 9.09797 27.8552 8.45753 28.5435 7.91278L28.4404 7.78027C27.7374 8.33606 27.108 8.98387 26.5669 9.71265C25.7756 10.7801 25.0321 11.9174 24.3585 13.0952C23.7843 13.9786 23.8947 13.8056 23.7365 14.0485C23.8506 14.0375 24.1376 13.9749 24.5315 13.997C24.7008 14.0081 24.8443 14.0117 24.9511 14.0117C25.6762 13.9713 26.3645 13.8019 27.0638 13.4744C28.4404 12.8302 29.563 11.8364 30.3949 10.5224L30.2513 10.4341C29.4121 11.7628 28.2895 12.7124 26.9902 13.3234C26.3093 13.6437 25.6394 13.8093 24.9437 13.8461C24.6088 13.8461 24.4321 13.8093 24.0751 13.8387C24.2149 13.6253 24.3511 13.4155 24.4873 13.2093C24.7744 12.7419 25.4185 11.542 26.6994 9.81571L26.7031 9.81203Z" fill="white"/>
<path d="M14.2402 7.18379C15.6131 5.98756 17.1921 5.00481 18.8447 4.30547L18.7785 4.15088C17.1148 4.8539 15.5211 5.84401 14.1297 7.05865C13.1985 7.86473 12.3888 8.82908 11.7189 9.92225C11.0747 10.9749 10.6588 12.1086 10.4895 13.2938L10.6551 13.3196C10.8244 12.1565 11.2293 11.0449 11.8624 10.0143C12.5249 8.93582 13.3237 7.98251 14.2402 7.18748V7.18379Z" fill="white"/>
<path d="M31.0463 5.51994C30.5162 4.40468 29.3384 3.63173 28.1643 3.26366C26.876 2.86246 25.5473 2.76308 24.2333 2.86246C23.0223 2.95447 22.1794 3.1017 21.4617 3.27102L21.4985 3.43665C22.2199 3.26734 23.0517 3.12379 24.2443 3.03177C25.5436 2.93239 26.8539 3.03177 28.1127 3.42561C29.2427 3.77896 30.3837 4.51878 30.8917 5.59355C31.2377 6.32602 31.315 7.05848 31.2119 7.85352C31.2303 7.85352 31.3959 7.8756 31.3775 7.8756C31.4843 7.04376 31.3996 6.27817 31.0426 5.52362L31.0463 5.51994Z" fill="white"/>
</g>
<defs>
<clipPath id="clip0_496_526">
<rect width="35" height="28.5661" fill="white" transform="translate(0.5 0.716797)"/>
</clipPath>
</defs>
</svg>
