<svg width="48" height="38" viewBox="0 0 48 38" fill="none" xmlns="http://www.w3.org/2000/svg">
<path d="M27.23 8H17.63C16.8344 8 16.0713 8.31607 15.5087 8.87868C14.9461 9.44129 14.63 10.2044 14.63 11V16.86C14.6303 17.516 14.8456 18.1538 15.243 18.6758C15.6403 19.1977 16.1978 19.5751 16.83 19.75C17.0593 19.7968 17.2649 19.9224 17.4111 20.1051C17.5573 20.2879 17.6347 20.5161 17.63 20.75V22.67C17.6263 22.7701 17.6534 22.8689 17.7076 22.9531C17.7618 23.0373 17.8405 23.1029 17.9331 23.141C18.0257 23.1792 18.1278 23.188 18.2256 23.1664C18.3233 23.1447 18.4121 23.0936 18.48 23.02L21.32 20.19C21.5063 20.0053 21.7577 19.9011 22.02 19.9H27.23C28.0257 19.9 28.7887 19.5839 29.3513 19.0213C29.9139 18.4587 30.23 17.6956 30.23 16.9V11C30.23 10.2044 29.9139 9.44129 29.3513 8.87868C28.7887 8.31607 28.0257 8 27.23 8ZM19.43 14.86C19.2322 14.86 19.0389 14.8014 18.8744 14.6915C18.71 14.5816 18.5818 14.4254 18.5061 14.2427C18.4304 14.06 18.4106 13.8589 18.4492 13.6649C18.4878 13.4709 18.583 13.2927 18.7229 13.1529C18.8628 13.013 19.0409 12.9178 19.2349 12.8792C19.4289 12.8406 19.63 12.8604 19.8127 12.9361C19.9954 13.0118 20.1516 13.14 20.2615 13.3044C20.3714 13.4689 20.43 13.6622 20.43 13.86C20.4274 14.1235 20.3209 14.3753 20.1336 14.5607C19.9463 14.746 19.6935 14.85 19.43 14.85V14.86ZM22.43 14.86C22.2322 14.86 22.0389 14.8014 21.8744 14.6915C21.71 14.5816 21.5818 14.4254 21.5061 14.2427C21.4304 14.06 21.4106 13.8589 21.4492 13.6649C21.4878 13.4709 21.583 13.2927 21.7229 13.1529C21.8628 13.013 22.0409 12.9178 22.2349 12.8792C22.4289 12.8406 22.63 12.8604 22.8127 12.9361C22.9954 13.0118 23.1516 13.14 23.2615 13.3044C23.3714 13.4689 23.43 13.6622 23.43 13.86C23.4274 14.1235 23.3209 14.3753 23.1336 14.5607C22.9463 14.746 22.6935 14.85 22.43 14.85V14.86ZM25.43 14.86C25.2322 14.86 25.0389 14.8014 24.8744 14.6915C24.71 14.5816 24.5818 14.4254 24.5061 14.2427C24.4304 14.06 24.4106 13.8589 24.4492 13.6649C24.4878 13.4709 24.583 13.2927 24.7229 13.1529C24.8628 13.013 25.0409 12.9178 25.2349 12.8792C25.4289 12.8406 25.63 12.8604 25.8127 12.9361C25.9954 13.0118 26.1516 13.14 26.2615 13.3044C26.3714 13.4689 26.43 13.6622 26.43 13.86C26.4274 14.1235 26.3209 14.3753 26.1336 14.5607C25.9463 14.746 25.6935 14.85 25.43 14.85V14.86Z" fill="#7B2420"/>
<path d="M33.37 7.85999V13.71C33.3693 14.2705 33.2115 14.8197 32.9145 15.2951C32.6176 15.7706 32.1934 16.1533 31.69 16.4V9.52999C31.69 8.73434 31.3739 7.97127 30.8113 7.40866C30.2487 6.84606 29.4856 6.52999 28.69 6.52999H18.09C18.3373 6.02999 18.7191 5.60884 19.1925 5.31384C19.6659 5.01884 20.2122 4.86167 20.77 4.85999H30.37C30.764 4.85999 31.1541 4.93758 31.518 5.08835C31.882 5.23911 32.2127 5.46009 32.4913 5.73867C32.7699 6.01724 32.9909 6.34796 33.1416 6.71194C33.2924 7.07591 33.37 7.46602 33.37 7.85999Z" fill="#7B2420"/>
<g filter="url(#filter0_d_1_5715)">
<path d="M18 30H30C30 31.1046 29.1046 32 28 32H20C18.8954 32 18 31.1046 18 30Z" fill="#7B2420"/>
</g>
<defs>
<filter id="filter0_d_1_5715" x="0" y="0" width="48" height="38" filterUnits="userSpaceOnUse" color-interpolation-filters="sRGB">
<feFlood flood-opacity="0" result="BackgroundImageFix"/>
<feColorMatrix in="SourceAlpha" type="matrix" values="0 0 0 0 0 0 0 0 0 0 0 0 0 0 0 0 0 0 127 0" result="hardAlpha"/>
<feMorphology radius="2" operator="dilate" in="SourceAlpha" result="effect1_dropShadow_1_5715"/>
<feOffset dy="-12"/>
<feGaussianBlur stdDeviation="8"/>
<feComposite in2="hardAlpha" operator="out"/>
<feColorMatrix type="matrix" values="0 0 0 0 0.839216 0 0 0 0 0.733333 0 0 0 0 0.729412 0 0 0 1 0"/>
<feBlend mode="normal" in2="BackgroundImageFix" result="effect1_dropShadow_1_5715"/>
<feBlend mode="normal" in="SourceGraphic" in2="effect1_dropShadow_1_5715" result="shape"/>
</filter>
</defs>
</svg>
