<svg width="24" height="32" viewBox="0 0 24 32" fill="none" xmlns="http://www.w3.org/2000/svg">
<path d="M5.63 22.72C5.63472 22.4861 5.55725 22.2579 5.41108 22.0751C5.2649 21.8924 5.05928 21.7668 4.83 21.72C4.19777 21.5451 3.64029 21.1677 3.24295 20.6458C2.84561 20.1238 2.6303 19.486 2.63 18.83V13C2.63 12.2044 2.94608 11.4413 3.50868 10.8787C4.07129 10.3161 4.83436 10 5.63 10H15.23C16.0257 10 16.7887 10.3161 17.3513 10.8787C17.9139 11.4413 18.23 12.2044 18.23 13V18.86C18.23 19.6556 17.9139 20.4187 17.3513 20.9813C16.7887 21.5439 16.0257 21.86 15.23 21.86H10.02C9.75767 21.8611 9.50627 21.9653 9.32 22.15L6.48 25C6.41214 25.0736 6.32334 25.1247 6.22556 25.1464C6.12778 25.168 6.02571 25.1592 5.93311 25.121C5.84051 25.0829 5.76181 25.0173 5.70762 24.9331C5.65342 24.8489 5.62634 24.7501 5.63 24.65V22.72Z" stroke="#000D26" stroke-width="1.5" stroke-miterlimit="10"/>
<path d="M5.77002 9.99999V9.85999C5.77002 9.06434 6.08609 8.30127 6.6487 7.73867C7.21131 7.17606 7.97437 6.85999 8.77002 6.85999H18.37C19.1657 6.85999 19.9287 7.17606 20.4913 7.73867C21.0539 8.30127 21.37 9.06434 21.37 9.85999V15.71C21.37 16.5056 21.0539 17.2687 20.4913 17.8313C19.9287 18.3939 19.1657 18.71 18.37 18.71H18.23" stroke="#000D26" stroke-width="1.5" stroke-miterlimit="10"/>
<path d="M7.43005 15.84V15.85" stroke="#000D26" stroke-width="2" stroke-linecap="round" stroke-linejoin="round"/>
<path d="M10.4301 15.84V15.85" stroke="#000D26" stroke-width="2" stroke-linecap="round" stroke-linejoin="round"/>
<path d="M13.4301 15.85V15.86" stroke="#000D26" stroke-width="2" stroke-linecap="round" stroke-linejoin="round"/>
</svg>
