<svg width="36" height="35" viewBox="0 0 36 35" fill="none" xmlns="http://www.w3.org/2000/svg">
<path d="M29.0756 13.5024H23.9639C24.4628 12.5954 24.7485 11.5635 24.7485 10.4675C24.7485 6.88164 21.7211 3.96429 18 3.96429C14.2789 3.96429 11.2515 6.88164 11.2515 10.4675C11.2515 11.5635 11.5372 12.5954 12.0361 13.5024H6.92435L4 19.1385L4.19571 19.5152C4.70049 20.489 5.65563 21.1358 6.75249 21.2763V30.8443H29.2475V21.2763C30.3444 21.1358 31.2995 20.489 31.8047 19.5152L32 19.1385L29.0756 13.5024ZM23.9742 14.3695L25.4742 18.7049H21.1133L20.9077 16.3269C21.8885 15.873 22.737 15.1993 23.3858 14.3695H23.9742ZM25.2956 19.572C24.8344 20.114 24.1488 20.4391 23.3988 20.4391C22.6488 20.4391 21.9632 20.114 21.502 19.572H25.2956ZM19.3497 22.1733V23.0404H18.4499V22.1733H17.5501V23.0404H16.6503V22.1733H15.7505V23.0404H14.8507V20.4686C15.0154 20.3247 15.1665 20.1656 15.3006 19.99C15.9273 20.8107 16.9153 21.3062 18 21.3062C19.0847 21.3062 20.0727 20.8107 20.6994 19.99C20.8335 20.1656 20.9846 20.3247 21.1493 20.4686V23.0404H20.2495V22.1733H19.3497ZM16.6503 9.09274C16.6503 8.97698 16.6971 8.86773 16.7821 8.78579C17.1074 8.47233 17.5402 8.29978 18 8.29978C18.4598 8.29978 18.8926 8.47233 19.2179 8.78579C19.3029 8.86773 19.3497 8.97698 19.3497 9.09274V9.60042C19.3497 10.3175 18.7441 10.9011 18 10.9011C17.2559 10.9011 16.6503 10.3175 16.6503 9.60042V9.09274ZM16.146 8.17275C16.0231 8.29067 15.9287 8.42854 15.8621 8.57768C15.7914 8.43895 15.7505 8.28764 15.7505 8.12853C15.7505 7.26663 16.478 6.56558 17.3724 6.56558H18.6272C19.522 6.56558 20.2495 7.26663 20.2495 8.12853C20.2495 8.28721 20.2086 8.43895 20.1379 8.57725C20.0713 8.42811 19.9769 8.29067 19.854 8.17232C19.3591 7.69541 18.7005 7.43268 18 7.43268C17.2995 7.43268 16.6409 7.69541 16.146 8.17275ZM18.831 11.9537L18 13.1542L17.1708 11.9559C17.2545 11.8718 17.326 11.7777 17.3841 11.675C17.5811 11.7296 17.7849 11.7682 18 11.7682C18.2155 11.7682 18.4198 11.7296 18.6168 11.675C18.6749 11.7768 18.7464 11.87 18.831 11.9537ZM18 14.7176L19.6363 12.3526C20.7592 12.5225 21.5992 13.4555 21.5992 14.558V14.901C20.6054 15.6515 19.3578 16.1036 18 16.1036C16.6422 16.1036 15.3946 15.6515 14.4008 14.901V14.558C14.4008 13.4655 15.2273 12.5403 16.3646 12.3539L18 14.7176ZM15.7896 18.7049L15.966 16.6673C16.608 16.8637 17.291 16.9707 18 16.9707C18.709 16.9707 19.392 16.8637 20.034 16.6673L20.2104 18.7049H15.7896ZM19.8968 19.572C19.4356 20.114 18.75 20.4391 18 20.4391C17.25 20.4391 16.5644 20.114 16.1032 19.572H19.8968ZM18 4.83139C21.2249 4.83139 23.8487 7.35985 23.8487 10.4675C23.8487 11.8531 23.325 13.1217 22.4612 14.1041C22.2529 12.7471 21.1313 11.6537 19.7114 11.4825C19.5814 11.4573 19.4784 11.3767 19.4149 11.2718C19.8689 10.9141 20.1712 10.3938 20.2284 9.80029L20.5739 9.46732C20.945 9.10965 21.1493 8.63448 21.1493 8.12853C21.1493 6.78886 20.0178 5.69849 18.6276 5.69849H17.3728C15.9822 5.69849 14.8507 6.78886 14.8507 8.12853C14.8507 8.63448 15.055 9.10965 15.4261 9.46689L15.7716 9.79986C15.8292 10.3938 16.132 10.9145 16.5864 11.2722C16.5257 11.3762 16.4298 11.4551 16.3205 11.4768C14.8718 11.6524 13.7475 12.7467 13.5388 14.1037C12.675 13.1217 12.1513 11.8531 12.1513 10.4675C12.1513 7.35985 14.7751 4.83139 18 4.83139ZM12.6142 14.3695C13.2634 15.1993 14.1115 15.873 15.0923 16.3269L14.8867 18.7049H10.5258L12.0258 14.3695H12.6142ZM14.498 19.572C14.0368 20.114 13.3512 20.4391 12.6012 20.4391C11.8512 20.4391 11.1656 20.114 10.7044 19.572H14.498ZM7.48043 14.3695H11.0769L9.57742 18.7049H5.23093L7.48043 14.3695ZM5.30561 19.572H9.09917C8.63802 20.114 7.95237 20.4391 7.20239 20.4391C6.45196 20.4391 5.76631 20.114 5.30561 19.572ZM28.3477 29.9772H7.65229V21.2763C8.55794 21.1606 9.36281 20.6958 9.90179 19.99C10.5285 20.8107 11.5165 21.3062 12.6012 21.3062C13.0767 21.3062 13.5338 21.2108 13.9509 21.0357V23.9075H22.0491V21.0357C22.4662 21.2108 22.9233 21.3062 23.3988 21.3062C24.4835 21.3062 25.4715 20.8107 26.0982 19.99C26.6372 20.6958 27.4421 21.1606 28.3477 21.2763V29.9772ZM28.7976 20.4391C28.0476 20.4391 27.362 20.114 26.9008 19.572H30.6944C30.2337 20.114 29.548 20.4391 28.7976 20.4391ZM26.4226 18.7049L24.9231 14.3695H28.5196L30.7691 18.7049H26.4226Z" fill="#A7A7A7"/>
<path d="M10.3516 28.243H11.2514V29.1101H10.3516V28.243Z" fill="#A7A7A7"/>
<path d="M8.552 28.243H9.4518V29.1101H8.552V28.243Z" fill="#A7A7A7"/>
<path d="M12.1514 28.243H13.0512V29.1101H12.1514V28.243Z" fill="#A7A7A7"/>
<path d="M8.552 26.5088H13.051V27.3759H8.552V26.5088Z" fill="#A7A7A7"/>
<path d="M8.552 24.7746H13.051V25.6417H8.552V24.7746Z" fill="#A7A7A7"/>
</svg>
