<svg width="18" height="17" viewBox="0 0 18 17" fill="none" xmlns="http://www.w3.org/2000/svg">
<path d="M15.0061 15.3556H2.49352C2.20852 15.3556 1.97217 15.1192 1.97217 14.8342C1.97217 14.5492 2.20852 14.3129 2.49352 14.3129H15.0061C15.2911 14.3129 15.5274 14.5492 15.5274 14.8342C15.5274 15.1192 15.2911 15.3556 15.0061 15.3556Z" fill="#7B2420"/>
<path d="M13.6297 2.48154C12.2812 1.13296 10.9604 1.09821 9.57705 2.48154L8.73593 3.32266C8.66642 3.39217 8.63861 3.50339 8.66642 3.60071C9.19472 5.44284 10.6684 6.91654 12.5105 7.44484C12.5384 7.4518 12.5662 7.45875 12.594 7.45875C12.6704 7.45875 12.7399 7.43094 12.7956 7.37533L13.6297 6.53421C14.3179 5.85297 14.6516 5.19259 14.6516 4.52525C14.6585 3.83706 14.3249 3.16973 13.6297 2.48154Z" fill="#7B2420"/>
<path d="M11.2594 8.07744C11.0578 7.98012 10.8631 7.8828 10.6754 7.77158C10.5225 7.68121 10.3765 7.58389 10.2306 7.47962C10.1124 7.40315 9.97336 7.29193 9.84128 7.18071C9.82738 7.17376 9.77872 7.13205 9.7231 7.07644C9.49371 6.8818 9.23651 6.63155 9.00711 6.35349C8.98626 6.33959 8.9515 6.29093 8.90284 6.22836C8.83332 6.14495 8.71515 6.00592 8.61088 5.84604C8.52746 5.74177 8.43014 5.58883 8.33977 5.4359C8.22855 5.24822 8.13123 5.06053 8.03391 4.86589C7.93659 4.65735 7.86013 4.45575 7.79061 4.26807L3.42513 8.63355C3.33476 8.72392 3.25134 8.89771 3.23049 9.01588L2.85511 11.6783C2.7856 12.151 2.91767 12.5959 3.20963 12.8948C3.45988 13.1381 3.80745 13.2701 4.18283 13.2701C4.26625 13.2701 4.34966 13.2632 4.43308 13.2493L7.10242 12.8739C7.22755 12.8531 7.40133 12.7696 7.48475 12.6793L11.8502 8.31379C11.6556 8.24427 11.4679 8.16781 11.2594 8.07744Z" fill="#7B2420"/>
</svg>
