<svg width="21" height="17" viewBox="0 0 21 17" fill="none" xmlns="http://www.w3.org/2000/svg">
<path d="M20.0991 12.8469L14.4131 10.8469C14.2628 10.7938 14.0977 10.8027 13.9539 10.8714C13.8102 10.9401 13.6996 11.0631 13.6466 11.2134C13.5935 11.3636 13.6023 11.5288 13.6711 11.6725C13.7398 11.8163 13.8628 11.9268 14.0131 11.9799L19.6991 13.9799C19.7735 14.0061 19.8523 14.0175 19.9311 14.0133C20.0099 14.0091 20.0871 13.9894 20.1582 13.9554C20.2294 13.9213 20.2932 13.8736 20.3459 13.8149C20.3986 13.7563 20.4393 13.6878 20.4656 13.6134C20.4918 13.539 20.5032 13.4602 20.499 13.3814C20.4948 13.3026 20.4751 13.2254 20.4411 13.1542C20.407 13.0831 20.3593 13.0193 20.3007 12.9665C20.242 12.9138 20.1735 12.8732 20.0991 12.8469Z" fill="#7B2420"/>
<path d="M9.11284 1.93792C9.60284 1.35392 9.87484 0.981914 9.89484 0.953914C9.9412 0.890092 9.97453 0.817766 9.99294 0.741062C10.0113 0.664358 10.0145 0.584778 10.0021 0.50687C9.98976 0.428961 9.96218 0.35425 9.92096 0.286998C9.87973 0.219747 9.82567 0.161274 9.76184 0.114917C9.69802 0.0685606 9.62569 0.0352265 9.54899 0.0168223C9.47229 -0.00158182 9.39271 -0.0046984 9.3148 0.00765179C9.23689 0.020002 9.16218 0.0475775 9.09492 0.0888018C9.02767 0.130026 8.9692 0.184094 8.92284 0.247917C6.60407 3.29146 3.67781 5.81963 0.329843 7.67192C0.231304 7.72217 0.148575 7.79869 0.0907975 7.89301C0.0330196 7.98734 0.00244141 8.0958 0.00244141 8.20642C0.00244141 8.31703 0.0330196 8.42549 0.0907975 8.51982C0.148575 8.61414 0.231304 8.69066 0.329843 8.74092C3.681 10.589 6.60839 13.1179 8.92384 16.1649C9.01746 16.2938 9.15846 16.3802 9.3158 16.4052C9.47314 16.4301 9.63395 16.3915 9.76284 16.2979C9.89174 16.2043 9.97816 16.0633 10.0031 15.906C10.028 15.7486 9.98946 15.5878 9.89584 15.4589C9.87584 15.4309 9.60384 15.0589 9.11384 14.4749C10.038 12.5172 10.4865 10.3689 10.4228 8.20492C10.4858 6.04191 10.0369 3.89461 9.11284 1.93792ZM8.26184 13.5089C6.39636 11.4366 4.23545 9.65069 1.84884 8.20891C4.23553 6.76725 6.39646 4.98136 8.26184 2.90892C8.59136 3.65372 8.82652 4.43679 8.96184 5.23992C8.24746 5.34257 7.59402 5.69932 7.12137 6.24474C6.64872 6.79016 6.38854 7.48769 6.38854 8.20941C6.38854 8.93114 6.64872 9.62867 7.12137 10.1741C7.59402 10.7195 8.24746 11.0763 8.96184 11.1789C8.82641 11.9817 8.59126 12.7644 8.26184 13.5089ZM7.60684 8.20891C7.60654 7.77914 7.76002 7.36343 8.03953 7.03696C8.31905 6.7105 8.70615 6.49482 9.13084 6.42892C9.19014 7.02039 9.21951 7.61448 9.21884 8.20891C9.21951 8.80335 9.19014 9.39744 9.13084 9.98891C8.70616 9.92277 8.31916 9.70685 8.03983 9.3802C7.76049 9.05354 7.60726 8.63772 7.60784 8.20792L7.60684 8.20891Z" fill="#7B2420"/>
<path d="M14.4141 5.57193L20.1001 3.57193C20.1745 3.54566 20.243 3.505 20.3016 3.45227C20.3603 3.39954 20.408 3.33576 20.442 3.26459C20.4761 3.19341 20.4958 3.11623 20.5 3.03744C20.5042 2.95866 20.4928 2.87982 20.4665 2.80543C20.4403 2.73103 20.3996 2.66255 20.3469 2.60387C20.2942 2.54519 20.2304 2.49746 20.1592 2.46343C20.088 2.4294 20.0108 2.40972 19.9321 2.40552C19.8533 2.40131 19.7744 2.41267 19.7 2.43893L14.0141 4.43893C13.8638 4.49198 13.7408 4.60253 13.6721 4.74628C13.6033 4.89002 13.5945 5.05518 13.6475 5.20543C13.7006 5.35567 13.8111 5.47869 13.9549 5.54742C14.0986 5.61616 14.2638 5.62497 14.4141 5.57193Z" fill="#7B2420"/>
<path d="M14.2157 8.80791H19.9017C20.0609 8.80791 20.2135 8.74469 20.326 8.63217C20.4385 8.51965 20.5017 8.36705 20.5017 8.20792C20.5017 8.04879 20.4385 7.89617 20.326 7.78365C20.2135 7.67112 20.0609 7.60791 19.9017 7.60791H14.2157C14.0566 7.60791 13.904 7.67112 13.7915 7.78365C13.679 7.89617 13.6157 8.04879 13.6157 8.20792C13.6157 8.36705 13.679 8.51965 13.7915 8.63217C13.904 8.74469 14.0566 8.80791 14.2157 8.80791Z" fill="#7B2420"/>
</svg>
