<svg width="16" height="16" viewBox="0 0 16 16" fill="none" xmlns="http://www.w3.org/2000/svg">
<path d="M10.3867 8.00003C10.3867 9.32003 9.32001 10.3867 8.00001 10.3867C6.68001 10.3867 5.61334 9.32003 5.61334 8.00003C5.61334 6.68003 6.68001 5.61337 8.00001 5.61337C9.32001 5.61337 10.3867 6.68003 10.3867 8.00003Z" stroke="#090F21" stroke-linecap="round" stroke-linejoin="round"/>
<path d="M8.00002 13.5134C10.3534 13.5134 12.5467 12.1267 14.0734 9.7267C14.6734 8.7867 14.6734 7.2067 14.0734 6.2667C12.5467 3.8667 10.3534 2.48003 8.00002 2.48003C5.64668 2.48003 3.45335 3.8667 1.92668 6.2667C1.32668 7.2067 1.32668 8.7867 1.92668 9.7267C3.45335 12.1267 5.64668 13.5134 8.00002 13.5134Z" stroke="#090F21" stroke-linecap="round" stroke-linejoin="round"/>
</svg>
