<svg width="24" height="23" viewBox="0 0 24 23" fill="none" xmlns="http://www.w3.org/2000/svg">
<path d="M11.203 4.2008L12 5.25273L12.797 4.2008C13.8271 2.84134 15.4806 1.95459 17.328 1.95459C20.467 1.95459 23 4.47635 23 7.57808C23 8.8779 22.7902 10.0763 22.4257 11.1887L22.4257 11.1887L22.4236 11.1952C21.5487 13.929 19.7499 16.1481 17.7865 17.8143C15.8191 19.4838 13.7456 20.5474 12.4255 20.9909L12.4255 20.9909L12.4149 20.9946C12.3499 21.0172 12.1995 21.0455 12 21.0455C11.8005 21.0455 11.6501 21.0172 11.5851 20.9946L11.5851 20.9945L11.5745 20.9909C10.2544 20.5474 8.18092 19.4838 6.21353 17.8143C4.25013 16.1481 2.45132 13.929 1.57642 11.1952L1.57644 11.1952L1.57429 11.1887C1.20981 10.0763 1 8.8779 1 7.57808C1 4.47635 3.53299 1.95459 6.672 1.95459C8.51941 1.95459 10.1729 2.84134 11.203 4.2008Z" stroke="#000D26" stroke-width="2"/>
</svg>
