<svg width="21" height="21" viewBox="0 0 21 21" fill="none" xmlns="http://www.w3.org/2000/svg">
<g clip-path="url(#clip0_1_5130)">
<path fill-rule="evenodd" clip-rule="evenodd" d="M20.35 10.6316C20.35 9.92254 20.2864 9.24073 20.1682 8.58618H10.75V12.4544H16.1318C15.9 13.7044 15.1955 14.7635 14.1364 15.4725V17.9816H17.3682C19.2591 16.2407 20.35 13.6771 20.35 10.6316Z" fill="#4285F4"/>
<path fill-rule="evenodd" clip-rule="evenodd" d="M10.7501 20.4043C13.4501 20.4043 15.7137 19.5089 17.3683 17.9816L14.1364 15.4725C13.241 16.0725 12.0955 16.427 10.7501 16.427C8.14554 16.427 5.94099 14.668 5.15463 12.3043H1.81372V14.8952C3.45918 18.1634 6.84099 20.4043 10.7501 20.4043Z" fill="#34A853"/>
<path fill-rule="evenodd" clip-rule="evenodd" d="M5.15455 12.3044C4.95455 11.7044 4.84091 11.0635 4.84091 10.4044C4.84091 9.74527 4.95455 9.10436 5.15455 8.50436V5.91345H1.81364C1.13636 7.26345 0.75 8.79073 0.75 10.4044C0.75 12.018 1.13636 13.5453 1.81364 14.8953L5.15455 12.3044Z" fill="#FBBC05"/>
<path fill-rule="evenodd" clip-rule="evenodd" d="M10.7501 4.38157C12.2183 4.38157 13.5364 4.88612 14.5728 5.87702L17.441 3.00884C15.7092 1.39521 13.4455 0.404297 10.7501 0.404297C6.84099 0.404297 3.45918 2.64521 1.81372 5.91339L5.15463 8.5043C5.94099 6.14066 8.14554 4.38157 10.7501 4.38157Z" fill="#EA4335"/>
</g>
<defs>
<clipPath id="clip0_1_5130">
<rect width="20" height="20" fill="white" transform="translate(0.75 0.404297)"/>
</clipPath>
</defs>
</svg>
