<svg width="48" height="52" viewBox="0 0 48 52" fill="none" xmlns="http://www.w3.org/2000/svg">
<path d="M39.7 16.0833L25.6667 6.66665C25.1776 6.32611 24.596 6.14355 24 6.14355C23.4041 6.14355 22.8224 6.32611 22.3334 6.66665L8.30003 16.0833C8.04459 16.2679 7.86831 16.5422 7.8065 16.8513C7.74469 17.1603 7.80191 17.4813 7.9667 17.75C8.14622 18.0114 8.41956 18.1936 8.72992 18.2588C9.04029 18.324 9.36384 18.2671 9.63336 18.1L11.4334 16.9V28.7333C11.4334 30.0594 11.9601 31.3312 12.8978 32.2689C13.8355 33.2065 15.1073 33.7333 16.4334 33.7333H19.3334C19.5085 33.7333 19.6818 33.6988 19.8436 33.6318C20.0054 33.5648 20.1524 33.4666 20.2762 33.3428C20.4 33.219 20.4982 33.072 20.5652 32.9102C20.6322 32.7485 20.6667 32.5751 20.6667 32.4V27.0667C20.6667 26.1826 21.0179 25.3348 21.643 24.7096C22.2681 24.0845 23.116 23.7333 24 23.7333C24.8841 23.7333 25.7319 24.0845 26.3571 24.7096C26.9822 25.3348 27.3334 26.1826 27.3334 27.0667V32.4C27.3334 32.5751 27.3679 32.7485 27.4349 32.9102C27.5019 33.072 27.6001 33.219 27.7239 33.3428C27.8477 33.4666 27.9947 33.5648 28.1565 33.6318C28.3182 33.6988 28.4916 33.7333 28.6667 33.7333H31.5C32.8261 33.7333 34.0979 33.2065 35.0356 32.2689C35.9732 31.3312 36.5 30.0594 36.5 28.7333V16.9L38.3 18.1C38.5072 18.2413 38.7496 18.3221 39 18.3333C39.2046 18.3359 39.4066 18.2869 39.5872 18.1908C39.7678 18.0946 39.9213 17.9545 40.0334 17.7833C40.2082 17.5118 40.2711 17.1831 40.2089 16.8662C40.1468 16.5493 39.9644 16.2687 39.7 16.0833Z" fill="#7B2420"/>
<g filter="url(#filter0_d_1_5672)">
<path d="M18 44H30C30 45.1046 29.1046 46 28 46H20C18.8954 46 18 45.1046 18 44Z" fill="#7B2420"/>
</g>
<defs>
<filter id="filter0_d_1_5672" x="0" y="14" width="48" height="38" filterUnits="userSpaceOnUse" color-interpolation-filters="sRGB">
<feFlood flood-opacity="0" result="BackgroundImageFix"/>
<feColorMatrix in="SourceAlpha" type="matrix" values="0 0 0 0 0 0 0 0 0 0 0 0 0 0 0 0 0 0 127 0" result="hardAlpha"/>
<feMorphology radius="2" operator="dilate" in="SourceAlpha" result="effect1_dropShadow_1_5672"/>
<feOffset dy="-12"/>
<feGaussianBlur stdDeviation="8"/>
<feComposite in2="hardAlpha" operator="out"/>
<feColorMatrix type="matrix" values="0 0 0 0 0.839216 0 0 0 0 0.733333 0 0 0 0 0.729412 0 0 0 1 0"/>
<feBlend mode="normal" in2="BackgroundImageFix" result="effect1_dropShadow_1_5672"/>
<feBlend mode="normal" in="SourceGraphic" in2="effect1_dropShadow_1_5672" result="shape"/>
</filter>
</defs>
</svg>
