<svg width="24" height="24" viewBox="0 0 24 24" fill="none" xmlns="http://www.w3.org/2000/svg">
<path d="M11.8749 3.429L11.8749 3.42901L11.877 3.42587C12.022 3.20675 12.3005 2.98928 12.6516 2.86518C12.9984 2.74261 13.3704 2.72711 13.695 2.84838L13.7027 2.85125L13.7104 2.85386C14.4627 3.10717 14.955 3.96712 14.8011 4.68524L14.7983 4.6983L14.7962 4.71148L14.2762 7.98148L14.276 7.98146L14.2744 7.99392C14.2167 8.42686 14.3329 8.83527 14.5914 9.1546L14.5991 9.1642L14.6074 9.1734C14.868 9.4647 15.2515 9.65001 15.67 9.65001H19.78C20.4352 9.65001 20.9507 9.91229 21.2421 10.3192C21.5133 10.7057 21.5836 11.231 21.3784 11.8139L21.3783 11.8139L21.375 11.824L18.915 19.314L18.9093 19.3312L18.9049 19.3487C18.6546 20.3501 17.5175 21.22 16.39 21.22H12.49C12.2057 21.22 11.8514 21.1702 11.5231 21.0722C11.1845 20.971 10.9336 20.8365 10.8036 20.7065L10.7811 20.684L10.7559 20.6645L9.4759 19.6745L9.47592 19.6745L9.4713 19.671C9.10876 19.3972 8.89 18.9561 8.89 18.49V8.33001C8.89 8.03022 8.97993 7.73684 9.14549 7.48815C9.14567 7.48789 9.14585 7.48762 9.14602 7.48736L11.8749 3.429Z" stroke="#7B2420"/>
<path d="M5.21 6.38H4.18C2.63 6.38 2 6.98 2 8.46V18.52C2 20 2.63 20.6 4.18 20.6H5.21C6.76 20.6 7.39 20 7.39 18.52V8.46C7.39 6.98 6.76 6.38 5.21 6.38Z" fill="#7B2420"/>
</svg>
