<svg width="22" height="22" viewBox="0 0 22 22" fill="none" xmlns="http://www.w3.org/2000/svg">
<path d="M16 8C16 11.87 12.64 15 8.5 15L7.57 16.12L7.02 16.78C6.55 17.34 5.65 17.22 5.34 16.55L4 13.6C2.18 12.32 1 10.29 1 8C1 4.13 4.36 1 8.5 1C11.52 1 14.13 2.67 15.3 5.07C15.75 5.96 16 6.95 16 8Z" stroke="white" stroke-width="1.5" stroke-linecap="round" stroke-linejoin="round"/>
<path d="M6 8.00007H11M21 11.8601C21 14.1501 19.82 16.1801 18 17.4601L16.66 20.4101C16.35 21.0801 15.45 21.2101 14.98 20.6401L13.5 18.8601C11.08 18.8601 8.92 17.7901 7.57 16.1201L8.5 15.0001C12.64 15.0001 16 11.8701 16 8.00007C16 6.95007 15.75 5.96007 15.3 5.07007C18.57 5.82007 21 8.58007 21 11.8601Z" stroke="white" stroke-width="1.5" stroke-linecap="round" stroke-linejoin="round"/>
</svg>
