<svg width="20" height="20" viewBox="0 0 20 20" fill="none" xmlns="http://www.w3.org/2000/svg">
<path d="M18.7362 7.40701H18.4172V7.08801C18.4131 7.02093 18.3835 6.95796 18.3345 6.91192C18.2856 6.86588 18.2209 6.84025 18.1537 6.84025C18.0865 6.84025 18.0218 6.86588 17.9729 6.91192C17.9239 6.95796 17.8943 7.02093 17.8902 7.08801V7.40701H17.5712C17.5365 7.40701 17.5022 7.41384 17.4702 7.42711C17.4381 7.44037 17.409 7.45982 17.3845 7.48434C17.36 7.50885 17.3406 7.53795 17.3273 7.56998C17.314 7.60201 17.3072 7.63634 17.3072 7.67101V8.54401C17.3072 8.55144 17.3043 8.55856 17.299 8.56381C17.2937 8.56906 17.2866 8.57201 17.2792 8.57201H15.2412C15.1712 8.57201 15.104 8.59983 15.0545 8.64934C15.005 8.69885 14.9772 8.76599 14.9772 8.83601V9.15501H14.6582C14.6222 9.15279 14.5862 9.15797 14.5523 9.17021C14.5184 9.18244 14.4874 9.20149 14.4611 9.22618C14.4349 9.25086 14.4139 9.28066 14.3996 9.31374C14.3853 9.34682 14.378 9.38247 14.378 9.41851C14.378 9.45455 14.3853 9.4902 14.3996 9.52328C14.4139 9.55636 14.4349 9.58616 14.4611 9.61084C14.4874 9.63553 14.5184 9.65458 14.5523 9.66682C14.5862 9.67906 14.6222 9.68423 14.6582 9.68201H14.9772V10C14.9772 10.07 15.005 10.1372 15.0545 10.1867C15.104 10.2362 15.1712 10.264 15.2412 10.264H17.2792C17.2866 10.264 17.2937 10.267 17.299 10.2722C17.3043 10.2775 17.3072 10.2846 17.3072 10.292V14.95C17.3072 14.9574 17.3043 14.9646 17.299 14.9698C17.2937 14.9751 17.2866 14.978 17.2792 14.978H12.0382C12.0308 14.978 12.0237 14.9751 12.0184 14.9698C12.0132 14.9646 12.0102 14.9574 12.0102 14.95V13.494C12.0102 13.424 11.9824 13.3568 11.9329 13.3073C11.8834 13.2578 11.8162 13.23 11.7462 13.23H11.4272V12.911C11.4231 12.8439 11.3935 12.781 11.3445 12.7349C11.2956 12.6889 11.2309 12.6633 11.1637 12.6633C11.0965 12.6633 11.0318 12.6889 10.9829 12.7349C10.9339 12.781 10.9043 12.8439 10.9002 12.911V13.23H10.5812C10.5112 13.23 10.444 13.2578 10.3945 13.3073C10.345 13.3568 10.3172 13.424 10.3172 13.494V14.95C10.3172 14.9574 10.3142 14.9646 10.309 14.9698C10.3037 14.9751 10.2966 14.978 10.2892 14.978H5.0472C5.03977 14.978 5.03265 14.9751 5.0274 14.9698C5.02215 14.9646 5.0192 14.9574 5.0192 14.95V10.291C5.01946 10.2838 5.02252 10.2769 5.02774 10.2719C5.03297 10.2668 5.03994 10.264 5.0472 10.264H10.2892C10.2966 10.264 10.3037 10.267 10.309 10.2722C10.3142 10.2775 10.3172 10.2846 10.3172 10.292V11.166C10.3172 11.236 10.345 11.3032 10.3945 11.3527C10.444 11.4022 10.5112 11.43 10.5812 11.43H10.9002V11.749C10.9043 11.8161 10.9339 11.8791 10.9829 11.9251C11.0318 11.9711 11.0965 11.9968 11.1637 11.9968C11.2309 11.9968 11.2956 11.9711 11.3445 11.9251C11.3935 11.8791 11.4231 11.8161 11.4272 11.749V11.43H11.7472C11.8172 11.43 11.8844 11.4022 11.9339 11.3527C11.9834 11.3032 12.0112 11.236 12.0112 11.166V10.291C12.0112 10.2873 12.0119 10.2837 12.0133 10.2803C12.0147 10.2769 12.0168 10.2738 12.0194 10.2712C12.022 10.2686 12.0251 10.2665 12.0285 10.2651C12.0319 10.2637 12.0355 10.263 12.0392 10.263H12.9132C12.9827 10.2625 13.0492 10.2346 13.0982 10.1853C13.1473 10.1361 13.1749 10.0695 13.1752 10V9.68101H13.4942C13.5302 9.68323 13.5662 9.67806 13.6001 9.66582C13.634 9.65358 13.665 9.63453 13.6913 9.60984C13.7175 9.58516 13.7385 9.55536 13.7528 9.52228C13.7671 9.4892 13.7744 9.45355 13.7744 9.41751C13.7744 9.38147 13.7671 9.34582 13.7528 9.31274C13.7385 9.27966 13.7175 9.24986 13.6913 9.22518C13.665 9.20049 13.634 9.18144 13.6001 9.1692C13.5662 9.15697 13.5302 9.15179 13.4942 9.15401H13.1752V8.83501C13.1752 8.80034 13.1684 8.76601 13.1551 8.73398C13.1418 8.70195 13.1224 8.67285 13.0979 8.64834C13.0734 8.62382 13.0443 8.60437 13.0122 8.59111C12.9802 8.57784 12.9459 8.57101 12.9112 8.57101H12.0372C12.0298 8.57101 12.0226 8.56806 12.0174 8.56281C12.0121 8.55756 12.0092 8.55044 12.0092 8.54301V7.67001C12.0092 7.63534 12.0024 7.60101 11.9891 7.56898C11.9758 7.53695 11.9564 7.50785 11.9319 7.48334C11.9074 7.45882 11.8783 7.43937 11.8462 7.42611C11.8142 7.41284 11.7799 7.40601 11.7452 7.40601H11.4262V7.08801C11.4221 7.02093 11.3925 6.95796 11.3435 6.91192C11.2946 6.86588 11.2299 6.84025 11.1627 6.84025C11.0955 6.84025 11.0308 6.86588 10.9819 6.91192C10.9329 6.95796 10.9033 7.02093 10.8992 7.08801V7.40701H10.5802C10.5455 7.40701 10.5112 7.41384 10.4792 7.42711C10.4471 7.44037 10.418 7.45982 10.3935 7.48434C10.369 7.50885 10.3496 7.53795 10.3363 7.56998C10.323 7.60201 10.3162 7.63634 10.3162 7.67101V8.54501C10.3162 8.55244 10.3132 8.55956 10.308 8.56481C10.3027 8.57006 10.2956 8.57301 10.2882 8.57301H7.6882C7.65223 8.5708 7.61619 8.57597 7.58229 8.58821C7.5484 8.60044 7.51737 8.61949 7.49112 8.64418C7.46486 8.66887 7.44394 8.69866 7.42964 8.73174C7.41534 8.76482 7.40796 8.80048 7.40796 8.83651C7.40796 8.87255 7.41534 8.9082 7.42964 8.94128C7.44394 8.97436 7.46486 9.00416 7.49112 9.02884C7.51737 9.05353 7.5484 9.07258 7.58229 9.08482C7.61619 9.09706 7.65223 9.10223 7.6882 9.10001H10.2882C10.4353 9.09975 10.5763 9.04119 10.6804 8.93716C10.7844 8.83314 10.8429 8.69213 10.8432 8.54501V7.93501H11.4812V8.54501C11.4815 8.69213 11.54 8.83314 11.644 8.93716C11.7481 9.04119 11.8891 9.09975 12.0362 9.10001H12.6462V9.73701H12.0362C11.889 9.73701 11.7478 9.79548 11.6438 9.89957C11.5397 10.0037 11.4812 10.1448 11.4812 10.292V10.9H10.8472V10.29C10.8472 10.1428 10.7887 10.0016 10.6846 9.89757C10.5806 9.79348 10.4394 9.73501 10.2922 9.73501H5.0472C4.9 9.73501 4.75884 9.79348 4.65475 9.89757C4.55067 10.0016 4.4922 10.1428 4.4922 10.29V14.95C4.4922 15.0972 4.55067 15.2384 4.65475 15.3425C4.75884 15.4465 4.9 15.505 5.0472 15.505H10.2892C10.4364 15.505 10.5776 15.4465 10.6816 15.3425C10.7857 15.2384 10.8442 15.0972 10.8442 14.95V13.758H11.4822V14.95C11.4822 15.0972 11.5407 15.2384 11.6448 15.3425C11.7488 15.4465 11.89 15.505 12.0372 15.505H17.2792C17.4263 15.5047 17.5673 15.4462 17.6714 15.3422C17.7754 15.2381 17.8339 15.0971 17.8342 14.95V10.291C17.8339 10.1439 17.7754 10.0029 17.6714 9.89886C17.5673 9.79483 17.4263 9.73628 17.2792 9.73601H15.5052V9.10001H17.2802C17.4273 9.09975 17.5683 9.04119 17.6724 8.93716C17.7764 8.83314 17.8349 8.69213 17.8352 8.54501V7.93501H18.4722V16.116C18.4722 16.1234 18.4693 16.1306 18.464 16.1358C18.4587 16.1411 18.4516 16.144 18.4442 16.144H3.8842C3.87678 16.144 3.86965 16.1411 3.8644 16.1358C3.85915 16.1306 3.8562 16.1234 3.8562 16.116V1.55501C3.8562 1.54759 3.85915 1.54046 3.8644 1.53521C3.86965 1.52996 3.87678 1.52701 3.8842 1.52701H15.2972C15.3332 1.52923 15.3692 1.52406 15.4031 1.51182C15.437 1.49958 15.468 1.48053 15.4943 1.45584C15.5205 1.43116 15.5415 1.40136 15.5558 1.36828C15.5701 1.3352 15.5774 1.29955 15.5774 1.26351C15.5774 1.22747 15.5701 1.19182 15.5558 1.15874C15.5415 1.12566 15.5205 1.09587 15.4943 1.07118C15.468 1.04649 15.437 1.02744 15.4031 1.0152C15.3692 1.00297 15.3332 0.997795 15.2972 1.00001H3.8842C3.82541 1.00007 3.76701 1.00953 3.7112 1.02801C3.6746 1.00958 3.63418 0.999988 3.5932 1.00001H3.0112C2.97523 0.997795 2.93919 1.00297 2.90529 1.0152C2.8714 1.02744 2.84037 1.04649 2.81412 1.07118C2.78786 1.09587 2.76694 1.12566 2.75264 1.15874C2.73834 1.19182 2.73096 1.22747 2.73096 1.26351C2.73096 1.29955 2.73834 1.3352 2.75264 1.36828C2.76694 1.40136 2.78786 1.43116 2.81412 1.45584C2.84037 1.48053 2.8714 1.49958 2.90529 1.51182C2.93919 1.52406 2.97523 1.52923 3.0112 1.52701H3.3312C3.3312 1.53601 3.3312 1.54501 3.3312 1.55501V16.115C3.3312 16.124 3.3312 16.133 3.3312 16.143H3.0112C2.97523 16.1408 2.93919 16.146 2.90529 16.1582C2.8714 16.1704 2.84037 16.1895 2.81412 16.2142C2.78786 16.2389 2.76694 16.2687 2.75264 16.3017C2.73834 16.3348 2.73096 16.3705 2.73096 16.4065C2.73096 16.4425 2.73834 16.4782 2.75264 16.5113C2.76694 16.5444 2.78786 16.5742 2.81412 16.5988C2.84037 16.6235 2.8714 16.6426 2.90529 16.6548C2.93919 16.6671 2.97523 16.6722 3.0112 16.67H3.3302V16.989C3.33433 17.0561 3.3639 17.1191 3.41286 17.1651C3.46182 17.2111 3.52649 17.2368 3.5937 17.2368C3.66091 17.2368 3.72558 17.2111 3.77454 17.1651C3.82351 17.1191 3.85307 17.0561 3.8572 16.989V16.669H18.4722V16.989C18.47 17.025 18.4752 17.061 18.4874 17.0949C18.4996 17.1288 18.5187 17.1598 18.5434 17.1861C18.5681 17.2123 18.5979 17.2333 18.6309 17.2476C18.664 17.2619 18.6997 17.2693 18.7357 17.2693C18.7717 17.2693 18.8074 17.2619 18.8405 17.2476C18.8735 17.2333 18.9033 17.2123 18.928 17.1861C18.9527 17.1598 18.9718 17.1288 18.984 17.0949C18.9962 17.061 19.0014 17.025 18.9992 16.989V16.407C18.9992 16.366 18.9896 16.3256 18.9712 16.289C18.9897 16.2332 18.9991 16.1748 18.9992 16.116V7.67101C18.9992 7.63634 18.9924 7.60201 18.9791 7.56998C18.9658 7.53795 18.9464 7.50885 18.9219 7.48434C18.8974 7.45982 18.8683 7.44037 18.8362 7.42711C18.8042 7.41384 18.7709 7.40701 18.7362 7.40701Z" fill="#7B2420" stroke="#7B2420" stroke-width="0.3"/>
<path d="M18.4461 1.00001H16.3521C16.3162 0.997795 16.2801 1.00297 16.2462 1.0152C16.2123 1.02744 16.1813 1.04649 16.155 1.07118C16.1288 1.09587 16.1079 1.12566 16.0936 1.15874C16.0793 1.19182 16.0719 1.22747 16.0719 1.26351C16.0719 1.29955 16.0793 1.3352 16.0936 1.36828C16.1079 1.40136 16.1288 1.43116 16.155 1.45584C16.1813 1.48053 16.2123 1.49958 16.2462 1.51182C16.2801 1.52406 16.3162 1.52923 16.3521 1.52701H18.4461C18.4535 1.52701 18.4607 1.52996 18.4659 1.53521C18.4712 1.54046 18.4741 1.54759 18.4741 1.55501V5.07701H17.8371V2.72001C17.8368 2.5729 17.7783 2.43188 17.6743 2.32786C17.5702 2.22383 17.4292 2.16528 17.2821 2.16501H12.0401C11.893 2.16528 11.752 2.22383 11.648 2.32786C11.5439 2.43188 11.4854 2.5729 11.4851 2.72001V5.07701H10.8471V2.72001C10.8469 2.5729 10.7883 2.43188 10.6843 2.32786C10.5802 2.22383 10.4392 2.16528 10.2921 2.16501H5.05012C4.903 2.16528 4.76199 2.22383 4.65797 2.32786C4.55394 2.43188 4.49538 2.5729 4.49512 2.72001V8.54401C4.49538 8.69113 4.55394 8.83214 4.65797 8.93616C4.76199 9.04019 4.903 9.09875 5.05012 9.09901H6.63612C6.67208 9.10123 6.70812 9.09606 6.74202 9.08382C6.77591 9.07158 6.80694 9.05253 6.8332 9.02784C6.85945 9.00316 6.88037 8.97336 6.89468 8.94028C6.90898 8.9072 6.91636 8.87155 6.91636 8.83551C6.91636 8.79947 6.90898 8.76382 6.89468 8.73074C6.88037 8.69766 6.85945 8.66787 6.8332 8.64318C6.80694 8.61849 6.77591 8.59944 6.74202 8.5872C6.70812 8.57497 6.67208 8.5698 6.63612 8.57201H5.05012C5.04269 8.57201 5.03557 8.56906 5.03032 8.56381C5.02507 8.55856 5.02212 8.55144 5.02212 8.54401V2.72001C5.02212 2.71259 5.02507 2.70546 5.03032 2.70021C5.03557 2.69496 5.04269 2.69201 5.05012 2.69201H10.2951C10.3025 2.69201 10.3097 2.69496 10.3149 2.70021C10.3202 2.70546 10.3231 2.71259 10.3231 2.72001V5.34101C10.3231 5.41103 10.3509 5.47818 10.4004 5.52769C10.4499 5.5772 10.5171 5.60501 10.5871 5.60501H10.9061V5.92401C10.9102 5.99109 10.9398 6.05407 10.9888 6.1001C11.0377 6.14614 11.1024 6.17177 11.1696 6.17177C11.2368 6.17177 11.3015 6.14614 11.3505 6.1001C11.3994 6.05407 11.429 5.99109 11.4331 5.92401V5.60001H11.7521C11.8221 5.60001 11.8893 5.5722 11.9388 5.52269C11.9883 5.47318 12.0161 5.40603 12.0161 5.33601V2.72001C12.0161 2.71633 12.0168 2.71269 12.0182 2.7093C12.0197 2.7059 12.0217 2.70281 12.0243 2.70021C12.0269 2.69761 12.03 2.69555 12.0334 2.69414C12.0368 2.69274 12.0404 2.69201 12.0441 2.69201H17.2861C17.2935 2.69201 17.3007 2.69496 17.3059 2.70021C17.3112 2.70546 17.3141 2.71259 17.3141 2.72001V5.34101C17.3141 5.37568 17.3209 5.41001 17.3342 5.44204C17.3475 5.47407 17.3669 5.50317 17.3914 5.52769C17.416 5.5522 17.4451 5.57165 17.4771 5.58492C17.5091 5.59818 17.5434 5.60501 17.5781 5.60501H17.8971V5.92301C17.9013 5.99009 17.9308 6.05307 17.9798 6.0991C18.0287 6.14514 18.0934 6.17077 18.1606 6.17077C18.2278 6.17077 18.2925 6.14514 18.3415 6.0991C18.3904 6.05307 18.42 5.99009 18.4241 5.92301V5.60001H18.7431C18.8131 5.60001 18.8803 5.5722 18.9298 5.52269C18.9793 5.47318 19.0071 5.40603 19.0071 5.33601V1.55501C19.0071 1.48162 18.9926 1.40896 18.9643 1.34123C18.936 1.2735 18.8946 1.21205 18.8424 1.16043C18.7903 1.10882 18.7284 1.06806 18.6603 1.04052C18.5923 1.01299 18.5195 0.999218 18.4461 1.00001Z" fill="#7B2420" stroke="#7B2420" stroke-width="0.3"/>
<path d="M17.5721 17.308C17.5021 17.308 17.4349 17.3358 17.3854 17.3853C17.3359 17.4348 17.3081 17.502 17.3081 17.572V17.891H5.02212V17.572C5.01798 17.5049 4.98842 17.4419 4.93946 17.3959C4.8905 17.3499 4.82582 17.3242 4.75861 17.3242C4.69141 17.3242 4.62674 17.3499 4.57777 17.3959C4.52881 17.4419 4.49925 17.5049 4.49512 17.572V18.737C4.49925 18.8041 4.52881 18.867 4.57777 18.9131C4.62674 18.9591 4.69141 18.9847 4.75861 18.9847C4.82582 18.9847 4.8905 18.9591 4.93946 18.9131C4.98842 18.867 5.01798 18.8041 5.02212 18.737V18.418H17.3081V18.737C17.3122 18.8041 17.3418 18.867 17.3908 18.9131C17.4397 18.9591 17.5044 18.9847 17.5716 18.9847C17.6388 18.9847 17.7035 18.9591 17.7525 18.9131C17.8014 18.867 17.831 18.8041 17.8351 18.737V17.572C17.8351 17.5021 17.8074 17.4351 17.7581 17.3857C17.7089 17.3362 17.642 17.3082 17.5721 17.308Z" fill="#7B2420" stroke="#7B2420" stroke-width="0.3"/>
<path d="M1.26413 14.9781C1.19705 14.9822 1.13407 15.0117 1.08804 15.0607C1.042 15.1097 1.01637 15.1743 1.01637 15.2416C1.01637 15.3088 1.042 15.3734 1.08804 15.4224C1.13407 15.4714 1.19705 15.5009 1.26413 15.5051H2.42913C2.49621 15.5009 2.55918 15.4714 2.60522 15.4224C2.65126 15.3734 2.67689 15.3088 2.67689 15.2416C2.67689 15.1743 2.65126 15.1097 2.60522 15.0607C2.55918 15.0117 2.49621 14.9822 2.42913 14.9781H2.11013V2.69205H2.42913C2.4651 2.69427 2.50114 2.6891 2.53503 2.67686C2.56893 2.66462 2.59996 2.64557 2.62621 2.62088C2.65246 2.5962 2.67339 2.5664 2.68769 2.53332C2.70199 2.50024 2.70937 2.46459 2.70937 2.42855C2.70937 2.39251 2.70199 2.35686 2.68769 2.32378C2.67339 2.2907 2.65246 2.2609 2.62621 2.23622C2.59996 2.21153 2.56893 2.19248 2.53503 2.18024C2.50114 2.16801 2.4651 2.16283 2.42913 2.16505H1.26413C1.22816 2.16283 1.19212 2.16801 1.15822 2.18024C1.12433 2.19248 1.0933 2.21153 1.06704 2.23622C1.04079 2.2609 1.01987 2.2907 1.00557 2.32378C0.991265 2.35686 0.983887 2.39251 0.983887 2.42855C0.983887 2.46459 0.991265 2.50024 1.00557 2.53332C1.01987 2.5664 1.04079 2.5962 1.06704 2.62088C1.0933 2.64557 1.12433 2.66462 1.15822 2.67686C1.19212 2.6891 1.22816 2.69427 1.26413 2.69205H1.58213V14.9781H1.26413Z" fill="#7B2420" stroke="#7B2420" stroke-width="0.3"/>
<path d="M1.26387 16.67H1.84587C1.91295 16.6659 1.97593 16.6364 2.02196 16.5874C2.068 16.5384 2.09363 16.4738 2.09363 16.4066C2.09363 16.3393 2.068 16.2747 2.02196 16.2257C1.97593 16.1767 1.91295 16.1472 1.84587 16.1431H1.26387C1.19679 16.1472 1.13382 16.1767 1.08778 16.2257C1.04174 16.2747 1.01611 16.3393 1.01611 16.4066C1.01611 16.4738 1.04174 16.5384 1.08778 16.5874C1.13382 16.6364 1.19679 16.6659 1.26387 16.67Z" fill="#7B2420" stroke="#7B2420" stroke-width="0.3"/>
<path d="M1.26413 1.52701H1.84613C1.91321 1.52288 1.97618 1.49332 2.02222 1.44435C2.06826 1.39539 2.09389 1.33072 2.09389 1.26351C2.09389 1.19631 2.06826 1.13163 2.02222 1.08267C1.97618 1.03371 1.91321 1.00415 1.84613 1.00001H1.26413C1.22816 0.997795 1.19212 1.00297 1.15822 1.0152C1.12433 1.02744 1.0933 1.04649 1.06704 1.07118C1.04079 1.09587 1.01987 1.12566 1.00557 1.15874C0.991265 1.19182 0.983887 1.22747 0.983887 1.26351C0.983887 1.29955 0.991265 1.3352 1.00557 1.36828C1.01987 1.40136 1.04079 1.43116 1.06704 1.45584C1.0933 1.48053 1.12433 1.49958 1.15822 1.51182C1.19212 1.52406 1.22816 1.52923 1.26413 1.52701Z" fill="#7B2420" stroke="#7B2420" stroke-width="0.3"/>
<path d="M3.59408 17.89C3.52406 17.89 3.45691 17.9178 3.4074 17.9673C3.35789 18.0169 3.33008 18.084 3.33008 18.154V18.736C3.33421 18.8031 3.36377 18.8661 3.41273 18.9121C3.4617 18.9581 3.52638 18.9838 3.59358 18.9838C3.66079 18.9838 3.72546 18.9581 3.77442 18.9121C3.82338 18.8661 3.85294 18.8031 3.85708 18.736V18.156C3.85734 18.1213 3.85074 18.0868 3.83765 18.0546C3.82457 18.0224 3.80526 17.9931 3.78082 17.9684C3.75639 17.9437 3.72731 17.924 3.69527 17.9106C3.66322 17.8971 3.62883 17.8901 3.59408 17.89Z" fill="#7B2420" stroke="#7B2420" stroke-width="0.3"/>
<path d="M18.7372 17.89C18.6671 17.89 18.6 17.9178 18.5505 17.9673C18.501 18.0169 18.4731 18.084 18.4731 18.154V18.736C18.4773 18.8031 18.5068 18.8661 18.5558 18.9121C18.6047 18.9581 18.6694 18.9838 18.7366 18.9838C18.8038 18.9838 18.8685 18.9581 18.9175 18.9121C18.9664 18.8661 18.996 18.8031 19.0002 18.736V18.156C19.0004 18.1213 18.9938 18.0868 18.9807 18.0546C18.9676 18.0224 18.9483 17.9931 18.9239 17.9684C18.8995 17.9437 18.8704 17.924 18.8383 17.9106C18.8063 17.8971 18.7719 17.8901 18.7372 17.89Z" fill="#7B2420" stroke="#7B2420" stroke-width="0.3"/>
<path d="M2.61501 17.385C2.56551 17.3356 2.49844 17.3079 2.42851 17.3079C2.35858 17.3079 2.2915 17.3356 2.24201 17.385L1.84201 17.785L1.44201 17.385C1.41793 17.3588 1.38878 17.3376 1.35632 17.3229C1.32386 17.3082 1.28876 17.3003 1.25313 17.2995C1.21751 17.2987 1.18209 17.3052 1.14903 17.3185C1.11596 17.3317 1.08592 17.3516 1.06072 17.3768C1.03552 17.402 1.01569 17.432 1.00241 17.4651C0.989133 17.4981 0.982687 17.5335 0.983461 17.5692C0.984235 17.6048 0.992213 17.6399 1.00692 17.6724C1.02162 17.7048 1.04274 17.7339 1.06901 17.758L1.46901 18.1581L1.06901 18.558C1.02304 18.6082 0.9982 18.6741 0.999678 18.7422C1.00116 18.8102 1.02883 18.875 1.07694 18.9231C1.12505 18.9712 1.18986 18.9989 1.25788 19.0004C1.3259 19.0018 1.39186 18.977 1.44201 18.931L1.84201 18.531L2.24201 18.931C2.29216 18.977 2.35812 19.0018 2.42613 19.0004C2.49415 18.9989 2.55897 18.9712 2.60707 18.9231C2.65518 18.875 2.68286 18.8102 2.68434 18.7422C2.68581 18.6741 2.66098 18.6082 2.61501 18.558L2.21501 18.1581L2.61501 17.758C2.66441 17.7085 2.69215 17.6415 2.69215 17.5715C2.69215 17.5016 2.66441 17.4345 2.61501 17.385Z" fill="#7B2420" stroke="#7B2420" stroke-width="0.3"/>
</svg>
