<svg width="24" height="24" viewBox="0 0 24 24" fill="none" xmlns="http://www.w3.org/2000/svg">
<path opacity="0.2" d="M12.0039 3C10.1828 2.99947 8.40439 3.55141 6.90357 4.5829C5.40276 5.6144 4.25018 7.07692 3.59807 8.77726C2.94597 10.4776 2.82503 12.3358 3.25123 14.1063C3.67743 15.8768 4.63072 17.4764 5.98516 18.6937C6.54953 17.5824 7.41061 16.649 8.47297 15.997C9.53532 15.345 10.7575 14.9999 12.0039 15C11.2622 15 10.5372 14.7801 9.92052 14.368C9.30384 13.956 8.82319 13.3703 8.53936 12.6851C8.25554 11.9998 8.18127 11.2458 8.32597 10.5184C8.47066 9.79098 8.82782 9.1228 9.35226 8.59835C9.87671 8.0739 10.5449 7.71675 11.2723 7.57205C11.9998 7.42736 12.7538 7.50162 13.439 7.78545C14.1242 8.06928 14.7099 8.54993 15.1219 9.16661C15.534 9.7833 15.7539 10.5083 15.7539 11.25C15.7539 12.2446 15.3588 13.1984 14.6556 13.9017C13.9523 14.6049 12.9985 15 12.0039 15C13.2504 14.9999 14.4725 15.345 15.5349 15.997C16.5972 16.649 17.4583 17.5824 18.0227 18.6937C19.3771 17.4764 20.3304 15.8768 20.7566 14.1063C21.1828 12.3358 21.0619 10.4776 20.4098 8.77726C19.7577 7.07692 18.6051 5.6144 17.1043 4.5829C15.6034 3.55141 13.825 2.99947 12.0039 3Z" fill="#7B2420"/>
<path d="M12.0039 21C16.9745 21 21.0039 16.9706 21.0039 12C21.0039 7.02944 16.9745 3 12.0039 3C7.03334 3 3.00391 7.02944 3.00391 12C3.00391 16.9706 7.03334 21 12.0039 21Z" stroke="#7B2420" stroke-width="1.5" stroke-linecap="round" stroke-linejoin="round"/>
<path d="M12.0039 15C14.075 15 15.7539 13.3211 15.7539 11.25C15.7539 9.17893 14.075 7.5 12.0039 7.5C9.93284 7.5 8.25391 9.17893 8.25391 11.25C8.25391 13.3211 9.93284 15 12.0039 15Z" stroke="#7B2420" stroke-width="1.5" stroke-linecap="round" stroke-linejoin="round"/>
<path d="M5.98515 18.6937C6.54944 17.5822 7.41049 16.6487 8.47285 15.9966C9.53521 15.3446 10.7574 14.9994 12.0039 14.9994C13.2504 14.9994 14.4726 15.3446 15.535 15.9966C16.5973 16.6487 17.4584 17.5822 18.0227 18.6937" stroke="#7B2420" stroke-width="1.5" stroke-linecap="round" stroke-linejoin="round"/>
</svg>
