<svg width="16" height="16" viewBox="0 0 16 16" fill="none" xmlns="http://www.w3.org/2000/svg">
<path d="M5.5 10.5L3 13" stroke="#191C1F" stroke-width="1.2" stroke-linecap="round" stroke-linejoin="round"/>
<path d="M9.64377 1.85628L5.75002 5.75003C5.75002 5.75003 4.01877 4.88128 2.16252 6.38128C2.1079 6.42548 2.06321 6.4807 2.03136 6.54333C1.99951 6.60596 1.98122 6.6746 1.97769 6.74478C1.97415 6.81496 1.98544 6.88509 2.01083 6.95061C2.03621 7.01613 2.07512 7.07556 2.12502 7.12503L8.86252 13.8625C8.91296 13.9138 8.97387 13.9537 9.04111 13.9793C9.10835 14.0049 9.18032 14.0157 9.25211 14.011C9.32391 14.0062 9.39383 13.986 9.45711 13.9518C9.52039 13.9175 9.57553 13.87 9.61877 13.8125C10.1438 13.1188 10.9688 11.6813 10.25 10.25L14.1438 6.35628C14.191 6.30975 14.2285 6.2543 14.2541 6.19314C14.2797 6.13198 14.2929 6.06633 14.2929 6.00003C14.2929 5.93372 14.2797 5.86808 14.2541 5.80692C14.2285 5.74576 14.191 5.6903 14.1438 5.64378L10.3563 1.85628C10.3097 1.80904 10.2543 1.77152 10.1931 1.74591C10.132 1.7203 10.0663 1.70712 10 1.70712C9.93372 1.70712 9.86807 1.7203 9.80691 1.74591C9.74575 1.77152 9.6903 1.80904 9.64377 1.85628Z" fill="#191C1F" stroke="#191C1F" stroke-width="1.2" stroke-linecap="round" stroke-linejoin="round"/>
</svg>
