<svg width="32" height="33" viewBox="0 0 32 33" fill="none" xmlns="http://www.w3.org/2000/svg">
<path d="M25.3333 23.7376C25.34 24.2151 25.1756 24.6791 24.87 25.0459C24.5643 25.4127 24.1375 25.6581 23.6666 25.7376H23.3333H8.66665H8.33331C7.8625 25.6581 7.43568 25.4127 7.13001 25.0459C6.82433 24.6791 6.65998 24.2151 6.66665 23.7376C6.65721 23.2595 6.82057 22.794 7.12673 22.4266C7.43289 22.0592 7.8613 21.8146 8.33331 21.7376V14.071C8.33331 12.0376 9.14105 10.0876 10.5788 8.64981C12.0166 7.21203 13.9667 6.4043 16 6.4043C18.0333 6.4043 19.9834 7.21203 21.4211 8.64981C22.8589 10.0876 23.6666 12.0376 23.6666 14.071V21.7376C24.1387 21.8146 24.5671 22.0592 24.8732 22.4266C25.1794 22.794 25.3428 23.2595 25.3333 23.7376Z" stroke="#000D26" stroke-width="1.5" stroke-linecap="round" stroke-linejoin="round"/>
<path d="M13.3333 28.4043H18.6666" stroke="#000D26" stroke-width="1.5" stroke-linecap="round" stroke-linejoin="round"/>
<path d="M17.0934 6.49763C17.249 6.27469 17.3328 6.00951 17.3334 5.73763C17.3334 5.38401 17.1929 5.04487 16.9429 4.79482C16.6928 4.54477 16.3537 4.4043 16.0001 4.4043C15.6465 4.4043 15.3073 4.54477 15.0573 4.79482C14.8072 5.04487 14.6667 5.38401 14.6667 5.73763C14.6674 6.00951 14.7511 6.27469 14.9067 6.49763" stroke="#000D26" stroke-width="1.5" stroke-linecap="round" stroke-linejoin="round"/>
</svg>
