<svg width="32" height="32" viewBox="0 0 32 32" fill="none" xmlns="http://www.w3.org/2000/svg">
<path d="M25.3333 23.3333C25.34 23.8108 25.1757 24.2748 24.87 24.6416C24.5643 25.0085 24.1375 25.2538 23.6667 25.3333H23.3333H8.66668H8.33334C7.86254 25.2538 7.43571 25.0085 7.13004 24.6416C6.82437 24.2748 6.66001 23.8108 6.66668 23.3333C6.65724 22.8552 6.8206 22.3897 7.12676 22.0223C7.43292 21.6549 7.86133 21.4103 8.33334 21.3333V13.6667C8.33334 11.6333 9.14108 9.68329 10.5789 8.24551C12.0166 6.80774 13.9667 6 16 6C18.0333 6 19.9834 6.80774 21.4212 8.24551C22.8589 9.68329 23.6667 11.6333 23.6667 13.6667V21.3333C24.1387 21.4103 24.5671 21.6549 24.8733 22.0223C25.1794 22.3897 25.3428 22.8552 25.3333 23.3333Z" fill="#7B2420"/>
<path d="M13.3333 28H18.6667" stroke="#7B2420" stroke-width="1.5" stroke-linecap="round" stroke-linejoin="round"/>
<path d="M17.0933 6.09333C17.2489 5.87039 17.3327 5.60521 17.3333 5.33333C17.3333 4.97971 17.1928 4.64057 16.9428 4.39052C16.6928 4.14048 16.3536 4 16 4C15.6464 4 15.3072 4.14048 15.0572 4.39052C14.8071 4.64057 14.6667 4.97971 14.6667 5.33333C14.6673 5.60521 14.751 5.87039 14.9067 6.09333" stroke="#7B2420" stroke-width="1.5" stroke-linecap="round" stroke-linejoin="round"/>
</svg>
