<svg width="20" height="20" viewBox="0 0 20 20" fill="none" xmlns="http://www.w3.org/2000/svg">
<path d="M0.599976 12.25C0.599976 11.7529 1.00292 11.35 1.49998 11.35H17.7C18.197 11.35 18.6 11.7529 18.6 12.25V15.85C18.6 16.3471 18.197 16.75 17.7 16.75H1.49998C1.00292 16.75 0.599976 16.3471 0.599976 15.85V12.25Z" stroke="#94A1B2" stroke-linejoin="round"/>
<path d="M2.3999 1.45001H16.7999V9.55001H2.3999V1.45001Z" stroke="#94A1B2" stroke-linejoin="round"/>
<path d="M0.599976 14.05H18.6" stroke="#94A1B2" stroke-linejoin="round"/>
<path d="M15 16.75H16.8V18.55H15.9L15 16.75Z" stroke="#94A1B2" stroke-linejoin="round"/>
<path d="M2.3999 16.75H4.1999L3.2999 18.55H2.3999V16.75Z" stroke="#94A1B2" stroke-linejoin="round"/>
<path d="M11.3999 9.55002H7.79993V11.35H11.3999V9.55002Z" stroke="#94A1B2"/>
</svg>
