<svg width="24" height="22" viewBox="0 0 24 22" fill="none" xmlns="http://www.w3.org/2000/svg">
<path d="M22.6322 14.651V13.361C22.6314 12.7825 22.4012 12.228 21.9922 11.819C21.5832 11.4099 21.0286 11.1798 20.4502 11.179H12.0922C12.0431 11.1737 11.9934 11.1789 11.9464 11.1941C11.8994 11.2093 11.8562 11.2342 11.8194 11.2672C11.7827 11.3002 11.7533 11.3406 11.7332 11.3857C11.7131 11.4308 11.7027 11.4796 11.7027 11.529C11.7027 11.5784 11.7131 11.6272 11.7332 11.6723C11.7533 11.7174 11.7827 11.7578 11.8194 11.7908C11.8562 11.8238 11.8994 11.8487 11.9464 11.8639C11.9934 11.8791 12.0431 11.8842 12.0922 11.879H20.4502C20.8421 11.8792 21.2179 12.0351 21.495 12.3122C21.7721 12.5893 21.9279 12.9651 21.9282 13.357V14.647C21.5417 14.7284 21.1949 14.9401 20.9458 15.2466C20.6968 15.5532 20.5607 15.936 20.5602 16.331V17.639H9.30419V16.331C9.30373 15.936 9.16756 15.5532 8.91853 15.2466C8.66949 14.9401 8.32269 14.7284 7.93619 14.647V13.357C7.93645 12.9651 8.09226 12.5893 8.36938 12.3122C8.6465 12.0351 9.02228 11.8792 9.41419 11.879H10.6862C10.7353 11.8842 10.785 11.8791 10.8319 11.8639C10.8789 11.8487 10.9222 11.8238 10.9589 11.7908C10.9957 11.7578 11.025 11.7174 11.0452 11.6723C11.0653 11.6272 11.0757 11.5784 11.0757 11.529C11.0757 11.4796 11.0653 11.4308 11.0452 11.3857C11.025 11.3406 10.9957 11.3002 10.9589 11.2672C10.9222 11.2342 10.8789 11.2093 10.8319 11.1941C10.785 11.1789 10.7353 11.1737 10.6862 11.179H9.41718C8.83872 11.1798 8.28418 11.4099 7.87515 11.819C7.46612 12.228 7.23598 12.7825 7.23518 13.361V14.651C6.84869 14.7324 6.50189 14.9441 6.25285 15.2506C6.00381 15.5572 5.86765 15.94 5.86719 16.335V21.352C5.86719 21.4454 5.90427 21.5349 5.97028 21.6009C6.0363 21.6669 6.12583 21.704 6.21918 21.704H17.0842C17.1333 21.7093 17.183 21.7041 17.2299 21.6889C17.2769 21.6737 17.3202 21.6488 17.3569 21.6158C17.3937 21.5828 17.423 21.5424 17.4432 21.4973C17.4633 21.4522 17.4737 21.4034 17.4737 21.354C17.4737 21.3046 17.4633 21.2558 17.4432 21.2107C17.423 21.1656 17.3937 21.1252 17.3569 21.0922C17.3202 21.0592 17.2769 21.0343 17.2299 21.0191C17.183 21.0039 17.1333 20.9987 17.0842 21.004H9.30819V18.352H20.5632V21.004H18.4862C18.4371 20.9987 18.3874 21.0039 18.3404 21.0191C18.2934 21.0343 18.2502 21.0592 18.2134 21.0922C18.1767 21.1252 18.1473 21.1656 18.1272 21.2107C18.1071 21.2558 18.0967 21.3046 18.0967 21.354C18.0967 21.4034 18.1071 21.4522 18.1272 21.4973C18.1473 21.5424 18.1767 21.5828 18.2134 21.6158C18.2502 21.6488 18.2934 21.6737 18.3404 21.6889C18.3874 21.7041 18.4371 21.7093 18.4862 21.704H23.6452C23.7385 21.704 23.8281 21.6669 23.8941 21.6009C23.9601 21.5349 23.9972 21.4454 23.9972 21.352V16.335C23.9969 15.9405 23.8611 15.558 23.6127 15.2515C23.3642 14.9449 23.0181 14.733 22.6322 14.651ZM6.56818 16.335C6.56818 16.0655 6.67523 15.8071 6.86577 15.6166C7.05631 15.426 7.31472 15.319 7.58418 15.319C7.85364 15.319 8.11207 15.426 8.3026 15.6166C8.49314 15.8071 8.60019 16.0655 8.60019 16.335V21H6.56818V16.335ZM23.2962 21H21.2642V16.335C21.2642 16.0655 21.3712 15.8071 21.5618 15.6166C21.7523 15.426 22.0107 15.319 22.2802 15.319C22.5497 15.319 22.8081 15.426 22.9986 15.6166C23.1891 15.8071 23.2962 16.0655 23.2962 16.335V21Z" fill="#7B2420"/>
<path d="M8.97612 8.66405C8.98544 8.75088 9.02635 8.83125 9.09106 8.88988C9.15578 8.94852 9.23979 8.98132 9.32712 8.98205H20.5321C20.6252 8.98101 20.7141 8.94359 20.7799 8.8778C20.8457 8.81201 20.8831 8.72308 20.8841 8.63005V0.352046C20.8831 0.259013 20.8457 0.170084 20.7799 0.104295C20.7141 0.0385063 20.6252 0.00108664 20.5321 4.70607e-05H18.4841C18.435 -0.00521004 18.3854 -7.61067e-05 18.3384 0.015117C18.2914 0.0303102 18.2481 0.055223 18.2114 0.0882333C18.1746 0.121244 18.1453 0.161613 18.1252 0.20672C18.105 0.251827 18.0947 0.300661 18.0947 0.350047C18.0947 0.399434 18.105 0.448266 18.1252 0.493373C18.1453 0.53848 18.1746 0.578851 18.2114 0.611862C18.2481 0.644872 18.2914 0.669783 18.3384 0.684976C18.3854 0.700169 18.435 0.705303 18.4841 0.700046H19.6841L19.0321 1.35205H10.8321L10.1801 0.700046H17.0801C17.1292 0.705303 17.1789 0.700169 17.2259 0.684976C17.2729 0.669783 17.3161 0.644872 17.3529 0.611862C17.3896 0.578851 17.419 0.53848 17.4391 0.493373C17.4592 0.448266 17.4696 0.399434 17.4696 0.350047C17.4696 0.300661 17.4592 0.251827 17.4391 0.20672C17.419 0.161613 17.3896 0.121244 17.3529 0.0882333C17.3161 0.055223 17.2729 0.0303102 17.2259 0.015117C17.1789 -7.61067e-05 17.1292 -0.00521004 17.0801 4.70607e-05H9.32613C9.23309 0.00108664 9.14416 0.0385063 9.07837 0.104295C9.01258 0.170084 8.97516 0.259013 8.97412 0.352046V8.63005C8.97412 8.64105 8.97512 8.65305 8.97612 8.66405ZM10.1761 8.27705L10.8281 7.62505H19.0321L19.6841 8.27705H10.1761ZM18.8321 6.92105H15.6321L15.0451 6.26905L16.9451 4.15405C16.9722 4.12436 17.0052 4.10065 17.0419 4.08443C17.0787 4.0682 17.1184 4.05983 17.1586 4.05983C17.1988 4.05983 17.2385 4.0682 17.2753 4.08443C17.3121 4.10065 17.345 4.12436 17.3721 4.15405L18.8281 5.75405L18.8321 6.92105ZM14.6841 6.92105H11.0321V6.66405L12.5741 4.95205C12.5951 4.92919 12.6206 4.91095 12.649 4.89847C12.6774 4.88599 12.7081 4.87954 12.7391 4.87954C12.7701 4.87954 12.8008 4.88599 12.8292 4.89847C12.8576 4.91095 12.8831 4.92919 12.9041 4.95205L14.6841 6.92105ZM20.1891 1.20305V7.78005L19.5321 7.12705V1.85505L20.1891 1.20305ZM18.8321 4.71105L17.8981 3.68405C17.8044 3.58206 17.6906 3.50064 17.5638 3.44494C17.4371 3.38924 17.3001 3.36048 17.1616 3.36048C17.0231 3.36048 16.8862 3.38924 16.7594 3.44494C16.6326 3.50064 16.5188 3.58206 16.4251 3.68405L14.5701 5.74405L13.4321 4.48005C13.3452 4.38364 13.239 4.30655 13.1204 4.25379C13.0018 4.20103 12.8734 4.17377 12.7436 4.17377C12.6138 4.17377 12.4855 4.20103 12.3669 4.25379C12.2482 4.30655 12.142 4.38364 12.0551 4.48005L11.0321 5.61105V2.06105H18.8321V4.71105ZM10.3321 1.85705V7.13005L9.68011 7.78205V1.20305L10.3321 1.85705Z" fill="#7B2420"/>
<path d="M3.96997 19.73H3.62497V7.53905H4.52497V11.5241C4.51972 11.5732 4.52485 11.6228 4.54005 11.6698C4.55524 11.7168 4.58015 11.7601 4.61316 11.7968C4.64617 11.8335 4.68654 11.8629 4.73165 11.883C4.77675 11.9031 4.82559 11.9135 4.87497 11.9135C4.92436 11.9135 4.97319 11.9031 5.0183 11.883C5.06341 11.8629 5.10378 11.8335 5.13679 11.7968C5.1698 11.7601 5.19471 11.7168 5.2099 11.6698C5.2251 11.6228 5.23023 11.5732 5.22497 11.5241V7.53905H6.18297C6.23567 7.53831 6.28754 7.52588 6.33485 7.50266C6.38215 7.47944 6.42371 7.446 6.45653 7.40477C6.48934 7.36354 6.51259 7.31553 6.5246 7.26422C6.53661 7.21291 6.53708 7.15957 6.52597 7.10805L5.29997 1.70405C5.2823 1.62628 5.23874 1.55681 5.17642 1.50703C5.11411 1.45725 5.03673 1.43011 4.95697 1.43005H1.58797C1.50822 1.43011 1.43084 1.45725 1.36853 1.50703C1.30621 1.55681 1.26265 1.62628 1.24497 1.70405L0.00897408 7.10405C-0.00213334 7.15557 -0.00166538 7.2089 0.0103442 7.26022C0.0223537 7.31153 0.0456053 7.35953 0.0784207 7.40077C0.111236 7.442 0.152797 7.47544 0.200103 7.49866C0.247409 7.52188 0.299281 7.53431 0.351974 7.53505H2.91997V19.73H2.57497C2.15893 19.7303 1.76 19.8957 1.46582 20.1899C1.17163 20.4841 1.00624 20.883 1.00597 21.299V21.3521C1.00597 21.4454 1.04306 21.5349 1.10907 21.601C1.17509 21.667 1.26462 21.7041 1.35797 21.7041H5.18697C5.28033 21.7041 5.36986 21.667 5.43588 21.601C5.50189 21.5349 5.53897 21.4454 5.53897 21.3521V21.299C5.53871 20.883 5.37332 20.4841 5.07913 20.1899C4.78495 19.8957 4.38602 19.7303 3.96997 19.73ZM1.86997 2.13605H4.67597L5.74997 6.83605H0.793974L1.86997 2.13605ZM1.76397 21.0041C1.82538 20.8384 1.93599 20.6955 2.08095 20.5945C2.22591 20.4935 2.3983 20.4393 2.57497 20.4391H3.97497C4.15165 20.4393 4.32403 20.4935 4.469 20.5945C4.61396 20.6955 4.72457 20.8384 4.78597 21.0041H1.76397Z" fill="#7B2420"/>
<path d="M14.5668 4.43507C14.7636 4.43507 14.9559 4.37671 15.1196 4.26738C15.2832 4.15805 15.4107 4.00265 15.486 3.82084C15.5613 3.63903 15.5811 3.43896 15.5427 3.24595C15.5043 3.05294 15.4095 2.87565 15.2704 2.7365C15.1312 2.59734 14.9539 2.50258 14.7609 2.46419C14.5679 2.4258 14.3678 2.4455 14.186 2.52081C14.0042 2.59612 13.8488 2.72365 13.7395 2.88728C13.6301 3.0509 13.5718 3.24327 13.5718 3.44006C13.5731 3.70355 13.6783 3.95587 13.8647 4.14218C14.051 4.3285 14.3033 4.43375 14.5668 4.43507ZM14.5668 3.15006C14.6241 3.15006 14.6802 3.16707 14.7279 3.19894C14.7756 3.2308 14.8127 3.2761 14.8347 3.32909C14.8566 3.38208 14.8624 3.44039 14.8512 3.49664C14.84 3.5529 14.8124 3.60457 14.7718 3.64513C14.7313 3.68568 14.6796 3.71331 14.6234 3.7245C14.5671 3.73569 14.5088 3.72994 14.4558 3.70799C14.4028 3.68604 14.3575 3.64887 14.3257 3.60118C14.2938 3.55349 14.2768 3.49742 14.2768 3.44006C14.277 3.36323 14.3077 3.28963 14.362 3.2353C14.4163 3.18097 14.4899 3.15033 14.5668 3.15006Z" fill="#7B2420"/>
</svg>
