<svg width="14" height="26" viewBox="0 0 14 26" fill="none" xmlns="http://www.w3.org/2000/svg">
<path d="M12.7622 24.664L10.7622 17.846L10.0481 15.413L9.06214 12.051L7.49314 6.70197C7.89225 6.55416 8.22669 6.27073 8.43794 5.90125C8.64918 5.53178 8.72377 5.09979 8.64869 4.68087C8.57361 4.26195 8.35363 3.88275 8.02721 3.60964C7.7008 3.33653 7.28875 3.18689 6.86315 3.18689C6.43755 3.18689 6.0255 3.33653 5.69909 3.60964C5.37268 3.88275 5.15268 4.26195 5.0776 4.68087C5.00252 5.09979 5.07713 5.53178 5.28837 5.90125C5.49961 6.27073 5.83404 6.55416 6.23315 6.70197L2.96314 17.848L0.963143 24.666C0.935558 24.7309 0.922032 24.8009 0.923439 24.8715C0.924846 24.942 0.941154 25.0114 0.971306 25.0752C1.00146 25.139 1.04477 25.1956 1.09838 25.2415C1.152 25.2873 1.2147 25.3213 1.28239 25.3412C1.35007 25.3611 1.4212 25.3664 1.4911 25.3569C1.56099 25.3473 1.62806 25.3231 1.68792 25.2857C1.74778 25.2484 1.79907 25.1988 1.8384 25.1403C1.87774 25.0817 1.90423 25.0155 1.91615 24.946L2.21615 23.909L6.85915 20.842L11.5021 23.909L11.8021 24.946C11.8141 25.0155 11.8406 25.0817 11.8799 25.1403C11.9192 25.1988 11.9705 25.2484 12.0304 25.2857C12.0902 25.3231 12.1573 25.3473 12.2272 25.3569C12.2971 25.3664 12.3682 25.3611 12.4359 25.3412C12.5036 25.3213 12.5663 25.2873 12.6199 25.2415C12.6735 25.1956 12.7168 25.139 12.747 25.0752C12.7771 25.0114 12.7934 24.942 12.7949 24.8715C12.7963 24.8009 12.7827 24.7309 12.7551 24.666L12.7622 24.664ZM6.04415 4.99797C6.04415 4.83559 6.09231 4.67686 6.18252 4.54185C6.27273 4.40683 6.40095 4.30161 6.55097 4.23947C6.70099 4.17733 6.86606 4.16107 7.02532 4.19275C7.18458 4.22443 7.33087 4.30262 7.44569 4.41743C7.56051 4.53225 7.63869 4.67855 7.67037 4.83781C7.70205 4.99707 7.68579 5.16214 7.62365 5.31216C7.56151 5.46217 7.45628 5.5904 7.32127 5.68061C7.18625 5.77082 7.02753 5.81897 6.86515 5.81897C6.64749 5.81871 6.43882 5.73213 6.2849 5.57822C6.13099 5.42431 6.04442 5.21563 6.04415 4.99797ZM6.86515 8.07997L7.92715 11.7H5.80315L6.86515 8.07997ZM5.51215 12.693H8.21915L8.91915 15.063H4.81915L5.51215 12.693ZM2.65514 22.431L3.72915 18.769L5.96415 20.245L2.65514 22.431ZM4.02215 17.772L4.52215 16.056H9.20214L9.70214 17.772L6.85915 19.65L4.02215 17.772ZM7.76615 20.245L10.0012 18.769L11.0751 22.431L7.76615 20.245Z" fill="#7B2420"/>
<path d="M4.50211 2.63804C4.55941 2.59506 4.60682 2.54026 4.64111 2.47737C4.6754 2.41447 4.69577 2.34494 4.70085 2.27348C4.70593 2.20203 4.6956 2.13031 4.67055 2.0632C4.6455 1.99609 4.60632 1.93514 4.55566 1.88448C4.50501 1.83383 4.44407 1.79465 4.37695 1.7696C4.30984 1.74455 4.23813 1.73422 4.16667 1.73929C4.09522 1.74437 4.02568 1.76475 3.96278 1.79904C3.89989 1.83333 3.84509 1.88073 3.80211 1.93804C2.9911 2.75091 2.53564 3.85228 2.53564 5.00054C2.53564 6.14879 2.9911 7.25017 3.80211 8.06304C3.89839 8.13525 4.0175 8.17031 4.13756 8.16178C4.25761 8.15325 4.37055 8.10169 4.45566 8.01659C4.54076 7.93148 4.59233 7.81854 4.60086 7.69848C4.60939 7.57843 4.57432 7.45932 4.50211 7.36304C3.87576 6.73634 3.52391 5.88657 3.52391 5.00054C3.52391 4.1145 3.87576 3.26473 4.50211 2.63804Z" fill="#7B2420"/>
<path d="M9.92503 1.93496C9.82874 1.86275 9.70963 1.82769 9.58958 1.83622C9.46952 1.84475 9.35657 1.89631 9.27146 1.98141C9.18636 2.06652 9.13479 2.17946 9.12626 2.29952C9.11773 2.41957 9.1528 2.53868 9.22501 2.63496C9.84983 3.26145 10.2007 4.11015 10.2007 4.99496C10.2007 5.87977 9.84983 6.72847 9.22501 7.35496C9.1528 7.45125 9.11773 7.57035 9.12626 7.69041C9.13479 7.81046 9.18636 7.92341 9.27146 8.00851C9.35657 8.09362 9.46952 8.14517 9.58958 8.15371C9.70963 8.16224 9.82874 8.12718 9.92503 8.05496C10.7345 7.2423 11.189 6.14199 11.189 4.99496C11.189 3.84793 10.7345 2.74763 9.92503 1.93496Z" fill="#7B2420"/>
<path d="M2.71206 0.847974C2.78427 0.751688 2.81933 0.632585 2.8108 0.51253C2.80227 0.392475 2.75072 0.279527 2.66561 0.194421C2.58051 0.109315 2.46756 0.0577642 2.3475 0.0492322C2.22745 0.0407002 2.10835 0.0757598 2.01206 0.147974C0.726512 1.43467 0.00439453 3.17912 0.00439453 4.99797C0.00439453 6.81683 0.726512 8.56128 2.01206 9.84797C2.05504 9.90528 2.10983 9.95269 2.17273 9.98698C2.23563 10.0213 2.30516 10.0416 2.37662 10.0467C2.44807 10.0518 2.51979 10.0415 2.5869 10.0164C2.65401 9.99136 2.71496 9.95218 2.76561 9.90153C2.81626 9.85087 2.85544 9.78993 2.88049 9.72281C2.90554 9.6557 2.91588 9.58399 2.9108 9.51253C2.90573 9.44107 2.88535 9.37154 2.85106 9.30865C2.81677 9.24575 2.76937 9.19096 2.71206 9.14797C1.61313 8.04642 0.995972 6.55396 0.995972 4.99797C0.995972 3.44199 1.61313 1.94953 2.71206 0.847974Z" fill="#7B2420"/>
<path d="M12.709 1.40299C12.6794 1.33873 12.6365 1.28149 12.5831 1.23504C12.5297 1.18859 12.4671 1.15399 12.3994 1.13354C12.3317 1.11308 12.2604 1.10723 12.1902 1.11638C12.1201 1.12552 12.0527 1.14945 11.9924 1.18658C11.9322 1.22371 11.8806 1.2732 11.8409 1.33177C11.8012 1.39035 11.7744 1.45668 11.7623 1.52638C11.7501 1.59608 11.7529 1.66756 11.7705 1.7361C11.788 1.80464 11.8199 1.86868 11.864 1.92399C12.5594 3.04727 12.8538 4.37296 12.6993 5.68499C12.5447 6.99702 11.9503 8.21803 11.013 9.14899C10.9557 9.19197 10.9083 9.24677 10.874 9.30966C10.8397 9.37256 10.8193 9.44209 10.8142 9.51355C10.8092 9.585 10.8195 9.65671 10.8446 9.72383C10.8696 9.79094 10.9088 9.85189 10.9594 9.90254C11.0101 9.9532 11.071 9.99238 11.1382 10.0174C11.2053 10.0425 11.277 10.0528 11.3484 10.0477C11.4199 10.0427 11.4894 10.0223 11.5523 9.98799C11.6152 9.9537 11.67 9.9063 11.713 9.84899C12.8039 8.75762 13.4954 7.33052 13.6757 5.79797C13.856 4.26542 13.5148 2.7168 12.707 1.40199L12.709 1.40299Z" fill="#7B2420"/>
<path d="M11.3633 0C11.2418 0.014455 11.1298 0.0729777 11.0485 0.164482C10.9672 0.255987 10.9224 0.374119 10.9224 0.4965C10.9224 0.618881 10.9672 0.737013 11.0485 0.828518C11.1298 0.920022 11.2418 0.978545 11.3633 0.993C11.4848 0.978545 11.5968 0.920022 11.6781 0.828518C11.7594 0.737013 11.8042 0.618881 11.8042 0.4965C11.8042 0.374119 11.7594 0.255987 11.6781 0.164482C11.5968 0.0729777 11.4848 0.014455 11.3633 0Z" fill="#7B2420"/>
</svg>
