<svg width="24" height="24" viewBox="0 0 24 24" fill="none" xmlns="http://www.w3.org/2000/svg">
<path d="M12.11 4.81999L4.81997 12.11C4.63402 12.2957 4.4865 12.5163 4.38585 12.7591C4.2852 13.0019 4.2334 13.2622 4.2334 13.525C4.2334 13.7878 4.2852 14.0481 4.38585 14.2909C4.4865 14.5337 4.63402 14.7542 4.81997 14.94L9.05997 19.18C9.24572 19.3659 9.46629 19.5135 9.70909 19.6141C9.95189 19.7148 10.2121 19.7666 10.475 19.7666C10.7378 19.7666 10.9981 19.7148 11.2409 19.6141C11.4836 19.5135 11.7042 19.3659 11.89 19.18L19.18 11.89C19.3939 11.6779 19.5572 11.4203 19.6576 11.1363C19.758 10.8524 19.793 10.5494 19.76 10.25L19.33 6.42999C19.2787 5.98091 19.0767 5.56246 18.7571 5.24284C18.4375 4.92323 18.019 4.72131 17.57 4.66999L13.75 4.23999C13.4506 4.20693 13.1476 4.24192 12.8636 4.34235C12.5796 4.44278 12.322 4.60606 12.11 4.81999Z" stroke="#000D26" stroke-width="1.5" stroke-linecap="round" stroke-linejoin="round"/>
<path d="M14.72 11.28C15.8245 11.28 16.72 10.3846 16.72 9.28003C16.72 8.17546 15.8245 7.28003 14.72 7.28003C13.6154 7.28003 12.72 8.17546 12.72 9.28003C12.72 10.3846 13.6154 11.28 14.72 11.28Z" stroke="#000D26" stroke-width="1.5" stroke-linecap="round" stroke-linejoin="round"/>
</svg>
