<svg width="48" height="38" viewBox="0 0 48 38" fill="none" xmlns="http://www.w3.org/2000/svg">
<path d="M27.6 10.3999C27.7937 10.6105 27.9087 10.8815 27.9254 11.167C27.9421 11.4526 27.8596 11.7352 27.6918 11.9669C27.524 12.1985 27.2812 12.3651 27.0047 12.4383C26.7282 12.5114 26.4348 12.4867 26.1744 12.3684C25.914 12.25 25.7025 12.0452 25.5758 11.7887C25.4491 11.5323 25.4149 11.2399 25.4792 10.9611C25.5434 10.6824 25.702 10.4344 25.9282 10.2592C26.1543 10.084 26.4341 9.99243 26.72 9.99994C26.8863 10.0026 27.0503 10.0394 27.2017 10.1082C27.3531 10.1771 27.4887 10.2764 27.6 10.3999Z" fill="#7B2420"/>
<path d="M31.33 8.4299C31.2808 7.97902 31.0798 7.55826 30.76 7.23664C30.4402 6.91502 30.0206 6.71165 29.57 6.6599L25.75 6.2399C25.4513 6.20556 25.1488 6.23897 24.8649 6.33766C24.581 6.43634 24.3229 6.59776 24.11 6.8099L16.82 14.1099C16.634 14.2956 16.4865 14.5162 16.3859 14.759C16.2852 15.0018 16.2334 15.2621 16.2334 15.5249C16.2334 15.7877 16.2852 16.048 16.3859 16.2908C16.4865 16.5336 16.634 16.7542 16.82 16.9399L21.06 21.1799C21.2457 21.3659 21.4663 21.5134 21.7091 21.614C21.9519 21.7147 22.2121 21.7665 22.475 21.7665C22.7378 21.7665 22.9981 21.7147 23.2409 21.614C23.4836 21.5134 23.7042 21.3659 23.89 21.1799L31.18 13.8799C31.3925 13.669 31.555 13.413 31.6553 13.1309C31.7557 12.8487 31.7915 12.5477 31.76 12.2499L31.33 8.4299ZM28.66 13.2299C28.2753 13.6144 27.7853 13.8762 27.2519 13.9822C26.7185 14.0882 26.1656 14.0336 25.6632 13.8254C25.1608 13.6173 24.7314 13.2648 24.4293 12.8126C24.1271 12.3604 23.9659 11.8287 23.9659 11.2849C23.9659 10.7411 24.1271 10.2094 24.4293 9.75722C24.7314 9.30501 25.1608 8.95254 25.6632 8.74436C26.1656 8.53618 26.7185 8.48164 27.2519 8.58765C27.7853 8.69365 28.2753 8.95544 28.66 9.3399C29.1711 9.85822 29.4577 10.5569 29.4577 11.2849C29.4577 12.0129 29.1711 12.7116 28.66 13.2299Z" fill="#7B2420"/>
<g filter="url(#filter0_d_1_5828)">
<path d="M18 30H30C30 31.1046 29.1046 32 28 32H20C18.8954 32 18 31.1046 18 30Z" fill="#7B2420"/>
</g>
<defs>
<filter id="filter0_d_1_5828" x="0" y="0" width="48" height="38" filterUnits="userSpaceOnUse" color-interpolation-filters="sRGB">
<feFlood flood-opacity="0" result="BackgroundImageFix"/>
<feColorMatrix in="SourceAlpha" type="matrix" values="0 0 0 0 0 0 0 0 0 0 0 0 0 0 0 0 0 0 127 0" result="hardAlpha"/>
<feMorphology radius="2" operator="dilate" in="SourceAlpha" result="effect1_dropShadow_1_5828"/>
<feOffset dy="-12"/>
<feGaussianBlur stdDeviation="8"/>
<feComposite in2="hardAlpha" operator="out"/>
<feColorMatrix type="matrix" values="0 0 0 0 0.839216 0 0 0 0 0.733333 0 0 0 0 0.729412 0 0 0 1 0"/>
<feBlend mode="normal" in2="BackgroundImageFix" result="effect1_dropShadow_1_5828"/>
<feBlend mode="normal" in="SourceGraphic" in2="effect1_dropShadow_1_5828" result="shape"/>
</filter>
</defs>
</svg>
