<svg width="24" height="15" viewBox="0 0 24 15" fill="none" xmlns="http://www.w3.org/2000/svg">
<path d="M23.422 13.1811L21.822 12.0521C21.775 12.0189 21.7198 11.9993 21.6625 11.9954C21.6051 11.9914 21.5478 12.0033 21.4967 12.0297C21.4457 12.0561 21.4028 12.0961 21.3729 12.1451C21.343 12.1942 21.3271 12.2506 21.327 12.308V13.1431H20.475C20.3989 13.1431 20.3259 13.1733 20.272 13.2271C20.2182 13.2809 20.188 13.3539 20.188 13.4301C20.188 13.5062 20.2182 13.5792 20.272 13.633C20.3259 13.6868 20.3989 13.717 20.475 13.717H21.324V14.549C21.3239 14.6063 21.3395 14.6625 21.3691 14.7115C21.3986 14.7606 21.441 14.8006 21.4917 14.8272C21.5424 14.8539 21.5994 14.8662 21.6565 14.8628C21.7137 14.8594 21.7688 14.8405 21.816 14.808L23.422 13.6971C23.4634 13.6681 23.4973 13.6296 23.5207 13.5848C23.5441 13.54 23.5563 13.4901 23.5563 13.4395C23.5563 13.389 23.5441 13.3392 23.5207 13.2943C23.4973 13.2495 23.4634 13.21 23.422 13.1811ZM21.895 14.053V12.8091L22.785 13.4361L21.895 14.053Z" fill="#7B2420"/>
<path d="M14.8779 13.1589H13.7309C13.6547 13.1589 13.5817 13.1892 13.5279 13.243C13.4741 13.2968 13.4438 13.3698 13.4438 13.446C13.4438 13.5221 13.4741 13.595 13.5279 13.6489C13.5817 13.7027 13.6547 13.7329 13.7309 13.7329H14.8779C14.954 13.7329 15.027 13.7027 15.0808 13.6489C15.1346 13.595 15.1649 13.5221 15.1649 13.446C15.1649 13.3698 15.1346 13.2968 15.0808 13.243C15.027 13.1892 14.954 13.1589 14.8779 13.1589Z" fill="#7B2420"/>
<path d="M19.372 13.1479H18.225C18.1489 13.1479 18.0759 13.1782 18.0221 13.232C17.9682 13.2858 17.938 13.3588 17.938 13.4349C17.938 13.5111 17.9682 13.5841 18.0221 13.6379C18.0759 13.6917 18.1489 13.722 18.225 13.722H19.372C19.4481 13.722 19.5211 13.6917 19.5749 13.6379C19.6287 13.5841 19.659 13.5111 19.659 13.4349C19.659 13.3588 19.6287 13.2858 19.5749 13.232C19.5211 13.1782 19.4481 13.1479 19.372 13.1479Z" fill="#7B2420"/>
<path d="M17.1249 13.153H15.9779C15.9018 13.153 15.8288 13.1832 15.775 13.237C15.7212 13.2909 15.6909 13.3639 15.6909 13.44C15.6909 13.5161 15.7212 13.5891 15.775 13.6429C15.8288 13.6967 15.9018 13.727 15.9779 13.727H17.1249C17.2011 13.727 17.274 13.6967 17.3279 13.6429C17.3817 13.5891 17.4119 13.5161 17.4119 13.44C17.4119 13.3639 17.3817 13.2909 17.3279 13.237C17.274 13.1832 17.2011 13.153 17.1249 13.153Z" fill="#7B2420"/>
<path d="M12.6308 13.165H11.4838C11.4077 13.165 11.3347 13.1953 11.2808 13.2491C11.227 13.3029 11.1968 13.3759 11.1968 13.452C11.1968 13.5281 11.227 13.6011 11.2808 13.655C11.3347 13.7088 11.4077 13.739 11.4838 13.739H12.6308C12.7069 13.739 12.7799 13.7088 12.8337 13.655C12.8875 13.6011 12.9178 13.5281 12.9178 13.452C12.9178 13.3759 12.8875 13.3029 12.8337 13.2491C12.7799 13.1953 12.7069 13.165 12.6308 13.165Z" fill="#7B2420"/>
<path d="M10.3842 13.171H9.2372C9.16108 13.171 9.08808 13.2012 9.03426 13.2551C8.98043 13.3089 8.9502 13.3819 8.9502 13.458C8.9502 13.5341 8.98043 13.6071 9.03426 13.6609C9.08808 13.7148 9.16108 13.745 9.2372 13.745H10.3842C10.4603 13.745 10.5333 13.7148 10.5871 13.6609C10.641 13.6071 10.6712 13.5341 10.6712 13.458C10.6712 13.3819 10.641 13.3089 10.5871 13.2551C10.5333 13.2012 10.4603 13.171 10.3842 13.171Z" fill="#7B2420"/>
<path d="M8.13818 13.18H7.17118V12.348C7.17106 12.2908 7.15533 12.2348 7.12569 12.1859C7.09606 12.137 7.05364 12.0971 7.00301 12.0706C6.95238 12.0441 6.89545 12.0318 6.83839 12.0352C6.78132 12.0387 6.72627 12.0576 6.67918 12.09L5.07718 13.2C5.03571 13.2289 5.00185 13.2675 4.97846 13.3123C4.95508 13.3571 4.94287 13.4069 4.94287 13.4575C4.94287 13.5081 4.95508 13.5579 4.97846 13.6027C5.00185 13.6475 5.03571 13.6861 5.07718 13.715L6.67718 14.844C6.72416 14.8786 6.77984 14.8993 6.83797 14.904C6.8961 14.9087 6.95438 14.8971 7.00629 14.8705C7.0582 14.8439 7.10168 14.8035 7.13187 14.7536C7.16205 14.7037 7.17774 14.6463 7.17718 14.588V13.754H8.14718C8.2233 13.754 8.2963 13.7238 8.35012 13.6699C8.40394 13.6161 8.43418 13.5431 8.43418 13.467C8.43418 13.3909 8.40394 13.3179 8.35012 13.2641C8.2963 13.2102 8.2233 13.18 8.14718 13.18H8.13818ZM6.59518 14.09L5.70518 13.463L6.59718 12.846L6.59518 14.09Z" fill="#7B2420"/>
<path d="M12.0121 2.73798C12.0121 1.75898 9.95407 1.24597 7.92107 1.24597C5.88807 1.24597 3.83008 1.75798 3.83008 2.73798C3.83008 3.71798 5.88807 4.22997 7.92107 4.22997C9.95407 4.22997 12.0121 3.72198 12.0121 2.73798ZM4.40308 2.73798C4.40308 2.42598 5.64507 1.81997 7.92107 1.81997C10.1971 1.81997 11.4391 2.42698 11.4391 2.73798C11.4391 3.04898 10.1971 3.65598 7.92107 3.65598C5.64507 3.65598 4.40308 3.04998 4.40308 2.73798Z" fill="#7B2420"/>
<path d="M12.1439 6.68594H12.2439C12.32 6.68594 12.393 6.65571 12.4469 6.60188C12.5007 6.54806 12.5309 6.47506 12.5309 6.39894C12.5309 6.32282 12.5007 6.24982 12.4469 6.196C12.393 6.14218 12.32 6.11194 12.2439 6.11194H12.1439C12.0678 6.11194 11.9948 6.14218 11.941 6.196C11.8872 6.24982 11.8569 6.32282 11.8569 6.39894C11.8569 6.47506 11.8872 6.54806 11.941 6.60188C11.9948 6.65571 12.0678 6.68594 12.1439 6.68594Z" fill="#7B2420"/>
<path d="M13.1952 6.68594H17.5952C17.6713 6.68594 17.7443 6.65571 17.7982 6.60188C17.852 6.54806 17.8822 6.47506 17.8822 6.39894C17.8822 6.32282 17.852 6.24982 17.7982 6.196C17.7443 6.14218 17.6713 6.11194 17.5952 6.11194H13.1952C13.1191 6.11194 13.0461 6.14218 12.9922 6.196C12.9384 6.24982 12.9082 6.32282 12.9082 6.39894C12.9082 6.47506 12.9384 6.54806 12.9922 6.60188C13.0461 6.65571 13.1191 6.68594 13.1952 6.68594Z" fill="#7B2420"/>
<path d="M23.713 4.91699H15.825V2.73799C15.825 2.17899 15.407 1.37799 13.395 0.731989C11.6145 0.217269 9.76718 -0.0291011 7.914 0.000993423C6.0605 -0.0289919 4.21288 0.217375 2.432 0.731989C0.421 1.37799 0 2.17899 0 2.73799V8.40699C0.033 10.128 4 11.036 7.916 11.036H23.716C23.7933 11.0326 23.8663 10.9996 23.9198 10.9437C23.9733 10.8878 24.0031 10.8134 24.003 10.736V5.18099C24.0024 5.14425 23.9943 5.10801 23.9792 5.07452C23.9641 5.04102 23.9423 5.01098 23.9151 4.98625C23.8879 4.96151 23.856 4.94261 23.8212 4.9307C23.7865 4.91878 23.7496 4.91412 23.713 4.91699ZM23.426 10.463H22.757V9.10299C22.7572 9.02709 22.7286 8.95394 22.677 8.89827C22.6255 8.8426 22.5547 8.80855 22.479 8.80299C22.4402 8.80123 22.4015 8.80736 22.3652 8.82099C22.3288 8.83463 22.2956 8.85548 22.2676 8.88231C22.2396 8.90914 22.2172 8.94138 22.202 8.97708C22.1868 9.01277 22.179 9.05118 22.179 9.08999V10.462H20.749V7.78799C20.7492 7.71209 20.7206 7.63895 20.669 7.58328C20.6175 7.52761 20.5467 7.49356 20.471 7.48799C20.4322 7.48623 20.3935 7.49236 20.3572 7.50599C20.3208 7.51962 20.2876 7.54049 20.2596 7.56732C20.2316 7.59414 20.2092 7.62638 20.194 7.66207C20.1788 7.69777 20.171 7.73618 20.171 7.77499V10.461H19.028V9.10099C19.0282 9.0251 18.9996 8.95194 18.948 8.89627C18.8965 8.8406 18.8257 8.80655 18.75 8.80099C18.7112 8.79923 18.6725 8.80536 18.6362 8.81899C18.5998 8.83263 18.5666 8.85348 18.5386 8.88031C18.5106 8.90714 18.4882 8.93938 18.473 8.97508C18.4578 9.01077 18.45 9.04918 18.45 9.08799V10.46H17.211V7.78599C17.2112 7.71009 17.1826 7.63694 17.131 7.58127C17.0795 7.5256 17.0087 7.49156 16.933 7.48599C16.8942 7.48424 16.8555 7.49036 16.8192 7.50399C16.7828 7.51763 16.7496 7.53849 16.7216 7.56532C16.6936 7.59214 16.6712 7.62438 16.656 7.66007C16.6408 7.69577 16.633 7.73418 16.633 7.77299V10.459H15.433V9.09899C15.4332 9.0231 15.4046 8.94994 15.353 8.89427C15.3015 8.8386 15.2307 8.80456 15.155 8.79899C15.1162 8.79723 15.0775 8.80335 15.0412 8.81699C15.0048 8.83062 14.9716 8.85149 14.9436 8.87831C14.9156 8.90514 14.8933 8.93737 14.878 8.97307C14.8628 9.00877 14.855 9.04718 14.855 9.08599V10.458H13.626V7.78399C13.6262 7.70809 13.5976 7.63494 13.546 7.57927C13.4945 7.5236 13.4237 7.48956 13.348 7.48399C13.3092 7.48224 13.2705 7.48836 13.2342 7.50199C13.1978 7.51563 13.1646 7.53648 13.1366 7.56331C13.1086 7.59014 13.0862 7.62238 13.071 7.65807C13.0558 7.69377 13.048 7.73218 13.048 7.77099V10.457H11.9V9.09699C11.9002 9.0211 11.8716 8.94794 11.82 8.89227C11.7685 8.83661 11.6977 8.80256 11.622 8.79699C11.5832 8.79523 11.5445 8.80136 11.5082 8.81499C11.4718 8.82862 11.4386 8.84949 11.4106 8.87631C11.3826 8.90314 11.3602 8.93538 11.345 8.97107C11.3298 9.00677 11.322 9.04519 11.322 9.08399V10.456H10.04V7.78199C10.0402 7.7061 10.0116 7.63294 9.96005 7.57727C9.90846 7.5216 9.83769 7.48755 9.762 7.48199C9.72323 7.48023 9.68451 7.48636 9.64817 7.49999C9.61184 7.51363 9.57865 7.53448 9.5506 7.56131C9.52256 7.58814 9.50025 7.62038 9.48502 7.65608C9.46979 7.69177 9.46196 7.73018 9.462 7.76899V10.455H8.319V9.02199C8.3192 8.94609 8.29064 8.87294 8.23905 8.81727C8.18746 8.7616 8.11669 8.72756 8.041 8.72199C8.00223 8.72024 7.96351 8.72636 7.92717 8.73999C7.89084 8.75363 7.85765 8.77449 7.8296 8.80132C7.80156 8.82815 7.77925 8.86038 7.76402 8.89607C7.74879 8.93177 7.74096 8.97018 7.741 9.00899V10.441C7.263 10.441 6.88 10.424 6.45 10.401V7.65799C6.4502 7.5821 6.42163 7.50894 6.37005 7.45327C6.31846 7.3976 6.24769 7.36355 6.172 7.35799C6.13323 7.35623 6.09451 7.36236 6.05817 7.37599C6.02184 7.38963 5.98865 7.41048 5.9606 7.43731C5.93256 7.46414 5.91025 7.49638 5.89502 7.53208C5.87979 7.56777 5.87196 7.60618 5.872 7.64499V10.36C5.49 10.327 5.059 10.284 4.725 10.233V8.80099C4.7252 8.72509 4.69663 8.65195 4.64505 8.59628C4.59346 8.54061 4.52269 8.50656 4.447 8.50099C4.40823 8.49924 4.36951 8.50536 4.33317 8.51899C4.29684 8.53263 4.26365 8.55349 4.2356 8.58032C4.20756 8.60714 4.18525 8.63938 4.17002 8.67507C4.15479 8.71077 4.14696 8.74918 4.147 8.78799V10.142C3.71221 10.0701 3.28133 9.97634 2.856 9.86099V7.29799C2.8562 7.22209 2.82763 7.14894 2.77605 7.09327C2.72446 7.0376 2.65369 7.00356 2.578 6.99799C2.53923 6.99624 2.50051 7.00236 2.46417 7.01599C2.42784 7.02963 2.39465 7.05048 2.3666 7.07731C2.33856 7.10414 2.31625 7.13638 2.30102 7.17207C2.28579 7.20777 2.27796 7.24618 2.278 7.28499V9.69499C1.178 9.31699 0.557 8.84399 0.557 8.38599V3.80899C1.10936 4.23991 1.74149 4.55733 2.417 4.74299C2.674 4.82499 2.945 4.90199 3.229 4.97099C3.26588 4.982 3.30461 4.98539 3.34284 4.98097C3.38107 4.97655 3.418 4.96441 3.45139 4.94528C3.48479 4.92615 3.51394 4.90043 3.53709 4.86968C3.56024 4.83894 3.5769 4.80381 3.58606 4.76644C3.59522 4.72906 3.59668 4.69021 3.59037 4.65225C3.58405 4.61428 3.57009 4.57799 3.54932 4.54559C3.52855 4.51319 3.50141 4.48535 3.46956 4.46376C3.4377 4.44217 3.40179 4.42728 3.364 4.41999C1.607 3.99199 0.552 3.34499 0.552 2.73899C0.552 1.71499 3.572 0.571993 7.899 0.571993C12.226 0.571993 15.242 1.72299 15.242 2.74699C15.242 3.72599 12.486 4.81999 8.463 4.91499H8.445V4.90399C8.254 4.90399 8.081 4.90399 7.89 4.90399C7.00341 4.90601 6.11749 4.85492 5.237 4.75099C5.19718 4.74603 5.15675 4.74959 5.11841 4.76145C5.08006 4.7733 5.04468 4.79317 5.01461 4.81975C4.98453 4.84632 4.96045 4.87899 4.94397 4.91558C4.92749 4.95217 4.91898 4.99186 4.919 5.03199V5.03699C4.91896 5.10628 4.94425 5.17319 4.99011 5.22513C5.03597 5.27707 5.09924 5.31045 5.168 5.31899C6.07412 5.42947 6.98617 5.48423 7.899 5.48299H23.409L23.426 10.463ZM15.251 3.80999V4.91699H12.885C13.062 4.86899 13.23 4.80799 13.396 4.75499C14.0697 4.56306 14.6997 4.24211 15.251 3.80999Z" fill="#7B2420"/>
</svg>
