<svg width="25" height="24" viewBox="0 0 25 24" fill="none" xmlns="http://www.w3.org/2000/svg">
<path d="M16.5 10.5H18.5C19.2956 10.5 20.0587 10.8161 20.6213 11.3787C21.1839 11.9413 21.5 12.7044 21.5 13.5V17.5C21.5 18.2956 21.1839 19.0587 20.6213 19.6213C20.0587 20.1839 19.2956 20.5 18.5 20.5H6.5C5.70435 20.5 4.94129 20.1839 4.37868 19.6213C3.81607 19.0587 3.5 18.2956 3.5 17.5V13.5C3.5 12.7044 3.81607 11.9413 4.37868 11.3787C4.94129 10.8161 5.70435 10.5 6.5 10.5H8.5" stroke="#7B2420" stroke-width="1.5" stroke-linecap="round" stroke-linejoin="round"/>
<path d="M12.23 3.5V15.5" stroke="#7B2420" stroke-width="1.5" stroke-linecap="round" stroke-linejoin="round"/>
<path d="M8.62988 7.1L12.2299 3.5L15.8299 7.1" stroke="#7B2420" stroke-width="1.5" stroke-linecap="round" stroke-linejoin="round"/>
</svg>
