<svg width="37" height="37" viewBox="0 0 37 37" fill="none" xmlns="http://www.w3.org/2000/svg">
<path d="M23.5122 19.798L20.8518 18.4973C20.6638 18.4054 20.5424 18.1999 20.5424 17.9737V17.1701C21.4361 16.3868 22.0106 15.1806 22.0106 13.8289V12.6977C22.305 12.5187 22.4999 12.1729 22.4999 11.7856V11.6758C22.4999 9.32051 20.7579 7.4043 18.6167 7.4043H17.638C15.4968 7.4043 13.7548 9.32051 13.7548 11.6758V12.672C13.7548 13.0124 13.888 13.3208 14.1202 13.5182C14.1595 13.5516 14.201 13.581 14.2441 13.6065V13.8289C14.2441 15.1806 14.8185 16.3868 15.7121 17.17V17.9737C15.7121 18.1998 15.5907 18.4054 15.4028 18.4972L12.7424 19.7979C11.8711 20.2238 11.3081 21.1768 11.3081 22.2256V28.9004C11.3081 29.1785 11.5131 29.404 11.7659 29.404C12.0188 29.404 12.2238 29.1785 12.2238 28.9004V22.2256C12.2238 22.1673 12.2276 22.1096 12.233 22.0524L13.4589 23.4009C13.6497 23.6108 13.7548 23.8898 13.7548 24.1867V28.9005C13.7548 29.1786 13.9598 29.4041 14.2126 29.4041C14.4655 29.4041 14.6705 29.1786 14.6705 28.9005V24.1867C14.6705 23.6208 14.4702 23.0888 14.1064 22.6887L12.645 21.081C12.7766 20.9308 12.9346 20.8062 13.1143 20.7183L15.7299 19.4396L17.6696 21.5732V28.9004C17.6696 29.1785 17.8746 29.404 18.1274 29.404C18.3803 29.404 18.5852 29.1785 18.5852 28.9004V21.5733L20.5249 19.4397L23.1404 20.7183C23.3201 20.8062 23.4781 20.9308 23.6098 21.0811L22.1483 22.6887C21.7846 23.0888 21.5843 23.6208 21.5843 24.1867V28.9005C21.5843 29.1786 21.7893 29.4041 22.0421 29.4041C22.295 29.4041 22.4999 29.1786 22.4999 28.9005V24.1867C22.4999 23.8899 22.605 23.6108 22.7958 23.4009L24.0217 22.0525C24.0272 22.1097 24.0309 22.1672 24.0309 22.2256V28.9004C24.0309 29.1785 24.2359 29.404 24.4888 29.404C24.7416 29.404 24.9466 29.1785 24.9466 28.9004V22.2256C24.9464 21.1769 24.3835 20.2239 23.5122 19.798ZM18.1272 20.6525L16.4253 18.7803C16.5547 18.5407 16.6277 18.2636 16.6277 17.9737V17.7688C17.0894 17.9822 17.596 18.1004 18.1273 18.1004C18.6586 18.1004 19.1651 17.9823 19.6267 17.7689V17.9737C19.6267 18.2637 19.6998 18.5407 19.8293 18.7803L18.1272 20.6525ZM18.1273 17.0932C16.491 17.0932 15.1598 15.6288 15.1598 13.8289V13.6024C15.4454 13.4779 15.7243 13.2797 15.9912 13.0087C16.177 12.8201 16.1887 12.5015 16.0171 12.2971C15.8456 12.0927 15.556 12.0799 15.3702 12.2685C15.1412 12.5011 14.9124 12.6513 14.6903 12.7151C14.6849 12.7166 14.681 12.7173 14.6782 12.7176C14.6749 12.7105 14.6704 12.6957 14.6704 12.672V11.6759C14.6704 9.87597 16.0017 8.41159 17.638 8.41159H18.6166C20.253 8.41159 21.5842 9.87597 21.5842 11.6759V11.7857C21.5842 11.802 21.5753 11.8162 21.5635 11.8187C18.822 12.4143 17.4469 11.2918 16.983 10.7815C16.8042 10.5848 16.5143 10.5848 16.3355 10.7815C16.1567 10.9781 16.1567 11.297 16.3355 11.4936C17.7572 13.0575 19.8318 13.0857 21.0948 12.9188V13.8289C21.0948 15.6288 19.7636 17.0932 18.1273 17.0932Z" fill="black"/>
<path d="M10.7557 17.0588V15.9821C10.7557 14.6682 10.135 13.5117 9.19978 12.8461C9.25753 12.6423 9.28769 12.4288 9.28769 12.2142C9.28769 11.0461 8.42379 10.0958 7.36187 10.0958C6.29994 10.0958 5.43604 11.0461 5.43604 12.2142C5.43604 12.4315 5.46596 12.6429 5.52382 12.8462C4.58863 13.5117 3.96799 14.6683 3.96799 15.9821V17.0586C3.96799 18.3309 4.54993 19.4559 5.43598 20.1302V21.2376C5.43598 21.4561 5.32568 21.6524 5.1481 21.7501L3.56455 22.621C2.9079 22.9823 2.5 23.7083 2.5 24.5159V28.9006C2.5 29.1788 2.70499 29.4042 2.95783 29.4042C3.21068 29.4042 3.41566 29.1788 3.41566 28.9006V24.7337L4.1615 25.5542C4.35226 25.7641 4.45738 26.0431 4.45738 26.3399V28.9006C4.45738 29.1788 4.66237 29.4042 4.91521 29.4042C5.16806 29.4042 5.37305 29.1788 5.37305 28.9006V26.3399C5.37305 25.7741 5.1727 25.2421 4.809 24.842L3.77094 23.7001C3.76593 23.6946 3.76056 23.6898 3.75544 23.6847C3.82057 23.6214 3.89364 23.5664 3.9741 23.522L5.55764 22.6511C5.63877 22.6065 5.71428 22.5538 5.78467 22.4952L6.90403 23.7266V28.9007C6.90403 29.1788 7.10902 29.4043 7.36187 29.4043C7.61471 29.4043 7.8197 29.1788 7.8197 28.9007V23.7265L8.93913 22.4951C9.00957 22.5538 9.08502 22.6065 9.16615 22.6511L9.6028 22.8912C9.66854 22.9274 9.73838 22.9446 9.80724 22.9446C9.97517 22.9446 10.1369 22.8425 10.2171 22.6661C10.3302 22.4173 10.2385 22.1148 10.0123 21.9904L9.5757 21.7503C9.39806 21.6526 9.28775 21.4562 9.28775 21.2378V20.1304C10.1738 19.4561 10.7557 18.331 10.7557 17.0588ZM7.36187 11.103C7.91889 11.103 8.37203 11.6015 8.37203 12.2142C8.37203 12.2816 8.36653 12.3478 8.35603 12.4126C8.04141 12.3064 7.70768 12.2488 7.36187 12.2488C7.01654 12.2488 6.68324 12.3062 6.3691 12.4121C6.35854 12.3473 6.35171 12.2815 6.35171 12.2142C6.35171 11.6014 6.80484 11.103 7.36187 11.103ZM7.36187 13.2561C8.72834 13.2561 9.84008 14.479 9.84008 15.9821V16.1646C7.93397 16.8066 6.798 15.2116 6.74947 15.1417C6.66981 15.0249 6.54802 14.9519 6.41568 14.9415C6.28334 14.9313 6.15331 14.9846 6.05949 15.0878C5.62247 15.5685 5.19443 15.8004 4.8853 15.9123C4.91918 14.4413 6.0167 13.2561 7.36187 13.2561ZM7.36187 22.8056L6.30391 21.6419C6.3348 21.512 6.35171 21.3766 6.35171 21.2377V20.623C6.67091 20.7327 7.01025 20.7918 7.36187 20.7918C7.71348 20.7918 8.05283 20.7327 8.37203 20.623V21.2377C8.37203 21.3766 8.38893 21.5121 8.41982 21.6419L7.36187 22.8056ZM7.36187 19.7846C5.99539 19.7846 4.88365 18.5617 4.88365 17.0586V16.9542C5.24876 16.862 5.7901 16.6476 6.35482 16.148C6.55462 16.3553 6.84018 16.6097 7.20382 16.8279C7.63394 17.0859 8.22796 17.3246 8.95353 17.3246C9.22927 17.3246 9.5243 17.2894 9.83617 17.2084C9.76518 18.6422 8.68262 19.7846 7.36187 19.7846Z" fill="black"/>
<path d="M32.6901 21.5445L30.1279 20.1352C29.9503 20.0375 29.84 19.8412 29.84 19.6228V18.9091C30.4398 18.3234 30.8187 17.4698 30.8187 16.5203V15.947C30.8292 15.947 30.8396 15.9474 30.8502 15.9474C31.103 15.9474 31.308 15.7219 31.308 15.4438V14.3672C31.308 12.6055 30.005 11.1722 28.4035 11.1722H27.4248C25.8233 11.1722 24.5203 12.6055 24.5203 14.3672V15.4438C24.5203 15.7219 24.7253 15.9474 24.9781 15.9474C24.9819 15.9474 24.9929 15.9472 25.0096 15.9465V16.5203C25.0096 17.4698 25.3886 18.3234 25.9883 18.9092V19.6229C25.9883 19.8413 25.878 20.0377 25.7004 20.1353C25.4742 20.2596 25.3825 20.5622 25.4956 20.8109C25.5758 20.9874 25.7375 21.0895 25.9055 21.0895C25.9743 21.0895 26.0441 21.0723 26.1099 21.0362C26.191 20.9916 26.2665 20.9389 26.3369 20.8803L27.4563 22.1117V28.9006C27.4563 29.1787 27.6613 29.4042 27.9141 29.4042C28.167 29.4042 28.372 29.1787 28.372 28.9006V22.1115L29.4913 20.8802C29.5618 20.9388 29.6372 20.9915 29.7184 21.0361L32.1977 22.3997L31.4457 23.2269C31.082 23.6271 30.8816 24.159 30.8816 24.7249V28.9005C30.8816 29.1786 31.0866 29.4041 31.3395 29.4041C31.5923 29.4041 31.7973 29.1786 31.7973 28.9005V24.7249C31.7973 24.4281 31.9023 24.149 32.0932 23.9391L32.8055 23.1556C32.8271 23.2467 32.8389 23.3417 32.8389 23.4392V28.9005C32.8389 29.1786 33.0439 29.4041 33.2968 29.4041C33.5496 29.4041 33.7546 29.1786 33.7546 28.9005V23.4392C33.7547 22.6317 33.3468 21.9057 32.6901 21.5445ZM25.4359 14.8365V14.3672H25.4359C25.4359 13.1608 26.3281 12.1794 27.4248 12.1794H28.4035C29.5001 12.1794 30.3924 13.1608 30.3924 14.3672V14.9266C28.4021 14.8085 27.2011 13.9566 27.1894 13.9482C27.112 13.8914 27.0236 13.8636 26.9356 13.8636C26.8174 13.8636 26.7002 13.9138 26.6117 14.0111C26.1736 14.4929 25.7444 14.7249 25.4359 14.8365ZM27.9141 21.1907L26.8562 20.027C26.8871 19.8971 26.904 19.7617 26.904 19.6228V19.5156C27.2187 19.6444 27.559 19.7152 27.9141 19.7152C28.2692 19.7152 28.6096 19.6444 28.9243 19.5156V19.6228C28.9243 19.7617 28.9411 19.8971 28.9721 20.027L27.9141 21.1907ZM27.9141 18.708C26.8175 18.708 25.9253 17.7267 25.9253 16.5203V15.7084C26.2459 15.5674 26.6195 15.3434 26.9997 14.9871C27.4805 15.2623 28.4864 15.7379 29.903 15.895V16.5203C29.903 17.7266 29.0108 18.708 27.9141 18.708Z" fill="black"/>
</svg>
