<svg width="20" height="16" viewBox="0 0 20 16" fill="none" xmlns="http://www.w3.org/2000/svg">
<path d="M19.8511 7.317C19.1191 5.717 16.2501 0.5 10.0001 0.5C3.75012 0.5 0.881119 5.717 0.149119 7.317C0.050862 7.53147 0 7.7646 0 8.0005C0 8.2364 0.050862 8.46953 0.149119 8.684C0.881119 10.282 3.75012 15.5 10.0001 15.5C16.2501 15.5 19.1191 10.283 19.8511 8.683C19.9493 8.46869 20.0001 8.23573 20.0001 8C20.0001 7.76427 19.9493 7.53131 19.8511 7.317ZM10.0001 13.833C4.74412 13.833 2.29212 9.361 1.66712 8.009C2.29212 6.638 4.74412 2.167 10.0001 2.167C15.2561 2.167 17.7001 6.619 18.3331 8C17.7001 9.381 15.2431 13.833 10.0001 13.833Z" fill="#7B2420"/>
<path d="M10 3.83301C9.17585 3.83301 8.37021 4.0774 7.68495 4.53527C6.99969 4.99315 6.46559 5.64395 6.1502 6.40537C5.83481 7.16679 5.75229 8.00463 5.91308 8.81295C6.07386 9.62127 6.47073 10.3638 7.0535 10.9465C7.63626 11.5293 8.37875 11.9262 9.18707 12.0869C9.99539 12.2477 10.8332 12.1652 11.5947 11.8498C12.3561 11.5344 13.0069 11.0003 13.4647 10.3151C13.9226 9.62981 14.167 8.82416 14.167 8.00001C14.167 6.89485 13.728 5.83496 12.9465 5.05349C12.1651 4.27203 11.1052 3.83301 10 3.83301ZM10 10.5C9.50556 10.5 9.02221 10.3534 8.61108 10.0787C8.19996 9.80398 7.87953 9.41353 7.69031 8.95672C7.50109 8.4999 7.45158 7.99723 7.54805 7.51228C7.64451 7.02733 7.88261 6.58187 8.23224 6.23224C8.58187 5.88261 9.02733 5.64451 9.51228 5.54804C9.99724 5.45158 10.4999 5.50109 10.9567 5.69031C11.4135 5.87953 11.804 6.19996 12.0787 6.61108C12.3534 7.0222 12.5 7.50555 12.5 8.00001C12.5 8.66305 12.2366 9.29893 11.7678 9.76777C11.2989 10.2366 10.6631 10.5 10 10.5Z" fill="#7B2420"/>
</svg>
