<svg width="25" height="24" viewBox="0 0 25 24" fill="none" xmlns="http://www.w3.org/2000/svg">
<path d="M8.15 20.91C8.12 20.91 8.08 20.93 8.05 20.93C6.11 19.97 4.53 18.38 3.56 16.44C3.56 16.41 3.58 16.37 3.58 16.34C4.8 16.7 6.06 16.97 7.31 17.18C7.53 18.44 7.79 19.69 8.15 20.91Z" fill="#1962BC"/>
<path d="M21.44 16.45C20.45 18.44 18.8 20.05 16.79 21.02C17.17 19.75 17.49 18.47 17.7 17.18C18.96 16.97 20.2 16.7 21.42 16.34C21.41 16.38 21.44 16.42 21.44 16.45Z" fill="#1962BC"/>
<path d="M21.52 7.71001C20.26 7.33001 18.99 7.02001 17.7 6.80001C17.49 5.51001 17.18 4.23001 16.79 2.98001C18.86 3.97001 20.53 5.64001 21.52 7.71001Z" fill="#1962BC"/>
<path d="M8.15 3.09C7.79 4.31 7.53 5.55 7.32 6.81C6.03 7.01 4.75 7.33 3.48 7.71C4.45 5.7 6.06 4.05 8.05 3.06C8.08 3.06 8.12 3.09 8.15 3.09Z" fill="#1962BC"/>
<path d="M15.99 6.59C13.67 6.33 11.33 6.33 9.01 6.59C9.26 5.22 9.58 3.85 10.03 2.53C10.05 2.45 10.04 2.39 10.05 2.31C10.84 2.12 11.65 2 12.5 2C13.34 2 14.16 2.12 14.94 2.31C14.95 2.39 14.95 2.45 14.97 2.53C15.42 3.86 15.74 5.22 15.99 6.59Z" fill="#1962BC"/>
<path d="M7.09 15.49C5.71 15.24 4.35 14.92 3.03 14.47C2.95 14.45 2.89 14.46 2.81 14.45C2.62 13.66 2.5 12.85 2.5 12C2.5 11.16 2.62 10.34 2.81 9.56001C2.89 9.55001 2.95 9.55001 3.03 9.53001C4.36 9.09001 5.71 8.76001 7.09 8.51001C6.84 10.83 6.84 13.17 7.09 15.49Z" fill="#1962BC"/>
<path d="M22.5 12C22.5 12.85 22.38 13.66 22.19 14.45C22.11 14.46 22.05 14.45 21.97 14.47C20.64 14.91 19.28 15.24 17.91 15.49C18.17 13.17 18.17 10.83 17.91 8.51001C19.28 8.76001 20.65 9.08001 21.97 9.53001C22.05 9.55001 22.11 9.56001 22.19 9.56001C22.38 10.35 22.5 11.16 22.5 12Z" fill="#1962BC"/>
<path d="M15.99 17.41C15.74 18.79 15.42 20.15 14.97 21.47C14.95 21.55 14.95 21.61 14.94 21.69C14.16 21.88 13.34 22 12.5 22C11.65 22 10.84 21.88 10.05 21.69C10.04 21.61 10.05 21.55 10.03 21.47C9.59 20.14 9.26 18.79 9.01 17.41C10.17 17.54 11.33 17.63 12.5 17.63C13.67 17.63 14.84 17.54 15.99 17.41Z" fill="#1962BC"/>
<path d="M16.2633 15.7633C13.7622 16.0789 11.2378 16.0789 8.73667 15.7633C8.42111 13.2622 8.42111 10.7378 8.73667 8.23667C11.2378 7.92111 13.7622 7.92111 16.2633 8.23667C16.5789 10.7378 16.5789 13.2622 16.2633 15.7633Z" fill="#1962BC"/>
</svg>
